<svg width="46" height="52" viewBox="0 0 46 52" fill="none" xmlns="http://www.w3.org/2000/svg">
<path d="M22.4511 0L0 8.60348L3.54743 40.6332L22.475 51.9608L41.5 40.4802L45.0463 8.45124L22.4511 0Z" fill="#B3B3B3"/>
<path d="M42.8068 10.3024L22.3989 2.72412V49.2544L39.5018 38.9475L42.8068 10.3024Z" fill="#A6120D"/>
<path d="M2.5188 10.439L5.55967 39.0845L22.3985 49.2545V2.72333L2.5188 10.439Z" fill="#DD1B16"/>
<path d="M28.0166 27.4946L22.399 30.3553H16.4779L13.6942 37.9356L8.51764 38.0404L22.399 4.41364L28.0166 27.4946ZM27.4733 26.0543L22.4361 15.1954L18.304 25.8675H22.3986L27.4733 26.0543Z" fill="#F2F2F2"/>
<path d="M22.3984 4.41364L22.4356 15.1954L27.1242 25.8757H22.4087L22.3984 30.3482L28.9185 30.3553L31.9655 38.0412L36.9189 38.141L22.3984 4.41364Z" fill="#B3B3B3"/>
</svg>
