<svg width="54" height="52" viewBox="0 0 54 52" fill="none" xmlns="http://www.w3.org/2000/svg">
<path d="M37.6456 2.37901H34.5305L37.7701 5.76429V7.37589H31.0977V5.48886H34.3369L31.0977 2.10358V0.490356H37.6456V2.37901V2.37901ZM29.7747 2.37901H26.6596L29.8992 5.76429V7.37589H23.2264V5.48886H26.4659L23.2264 2.10358V0.490356H29.7747V2.37901V2.37901ZM21.981 2.4562H18.6195V5.41004H21.981V7.37589H16.23V0.490356H21.981V2.4562V2.4562Z" fill="#131313"/>
<path d="M11.6493 47.4118L8.23334 10.519H45.7663L42.3474 47.4057L26.9768 51.5097L11.6493 47.4118V47.4118Z" fill="#1572B6"/>
<path d="M27.0004 48.373L39.42 45.0572L42.3419 13.5358H27.0004V48.373Z" fill="#33A9DC"/>
<path d="M27 26.9019H33.2176L33.6475 22.2686H27V17.7438H38.7825L38.6699 18.9577L37.5152 31.4263H27V26.9019V26.9019Z" fill="white"/>
<path d="M27.0283 38.6531L27.0076 38.6587L21.7747 37.2978L21.4397 33.6891H16.7236L17.3821 40.7936L27.0068 43.3664L27.0287 43.3603V38.6531H27.0283Z" fill="#EBEBEB"/>
<path d="M32.8185 31.2349L32.2524 37.2946L27.0118 38.6567V43.3643L36.6445 40.7936L36.7154 40.029L37.533 31.2349H32.8185V31.2349Z" fill="white"/>
<path d="M27.0165 17.7438V22.2682H15.6668L15.5723 21.2513L15.3584 18.9577L15.2457 17.7438H27.0165ZM27 26.9023V31.4271H21.8333L21.7392 30.4102L21.5249 28.1162L21.4123 26.9023H27V26.9023Z" fill="#EBEBEB"/>
</svg>
