<svg width="55" height="52" viewBox="0 0 55 52" fill="none" xmlns="http://www.w3.org/2000/svg">
<path d="M53.6001 23.7161L29.917 1.32603C28.554 0.0365884 26.342 0.0365884 24.9768 1.32603L20.0599 5.97596L26.2981 11.8739C27.7483 11.4112 29.4104 11.7216 30.5658 12.814C31.7272 13.9133 32.0534 15.4981 31.5511 16.8736L37.5633 22.5587C39.0177 22.0846 40.6965 22.3909 41.8576 23.491C43.4818 25.0254 43.4818 27.5129 41.8576 29.0481C40.2333 30.5837 37.6032 30.5837 35.9781 29.0481C34.757 27.8927 34.4549 26.1967 35.0736 24.774L29.4671 19.4728L29.4662 33.4238C29.8624 33.6087 30.2358 33.8557 30.5658 34.1665C32.1896 35.7009 32.1896 38.1875 30.5658 39.7252C28.942 41.2596 26.3102 41.2596 24.6881 39.7252C23.0647 38.1879 22.9315 35.7013 24.5545 34.1665C24.9558 33.7874 25.3515 33.501 25.7812 33.3093V19.2291C25.3515 19.0373 24.9562 18.7529 24.554 18.3715C23.3247 17.2096 23.0948 15.5033 23.7256 14.075L17.6099 8.26031L1.38744 23.6125C0.0231791 24.9032 0.0317728 26.9945 1.39603 28.2844L25.083 50.6744C26.4464 51.9639 28.6601 51.9639 30.0257 50.6744L53.5983 28.3884C54.9626 27.0981 54.9639 25.0055 53.6001 23.7161V23.7161Z" fill="#F34F29"/>
</svg>
