<svg width="46" height="49" viewBox="0 0 46 49" fill="none" xmlns="http://www.w3.org/2000/svg">
<path fill-rule="evenodd" clip-rule="evenodd" d="M22.8797 0C10.2452 0 0 11.1535 0 24.9135C0 35.9214 6.55572 45.2596 15.6465 48.5543C16.7896 48.7854 17.2094 48.0139 17.2094 47.3558C17.2094 46.7618 17.1882 44.7992 17.1783 42.7175C10.8132 44.2245 9.47005 39.778 9.47005 39.778C8.42927 36.8983 6.92967 36.1326 6.92967 36.1326C4.85342 34.5864 7.08615 34.6185 7.08615 34.6185C9.38328 34.7939 10.5934 37.1859 10.5934 37.1859C12.6341 40.9938 15.9458 39.8931 17.2514 39.2569C17.4568 37.6467 18.0497 36.5472 18.704 35.9251C13.6222 35.296 8.27961 33.1593 8.27961 23.6131C8.27961 20.8932 9.17376 18.6707 10.6374 16.9256C10.3994 16.2985 9.61629 13.7646 10.8586 10.3329C10.8586 10.3329 12.7795 9.66334 17.1518 12.8867C18.9772 12.3342 20.9349 12.0566 22.8797 12.0471C24.8233 12.0566 26.7821 12.3334 28.6109 12.8858C32.9779 9.66251 34.8965 10.3321 34.8965 10.3321C36.1419 13.7633 35.3587 16.2977 35.1212 16.9248C36.5882 18.6699 37.4759 20.8923 37.4759 23.6123C37.4759 33.1812 32.1235 35.2877 27.0287 35.9049C27.8498 36.678 28.581 38.1946 28.581 40.5185C28.581 43.852 28.5545 46.5349 28.5545 47.3554C28.5545 48.0184 28.9667 48.7953 30.1261 48.5506C39.2116 45.2526 45.7597 35.9173 45.7597 24.9135C45.7593 11.1543 35.5152 0.000412528 22.8797 0.000412528V0Z" fill="#181616"/>
<path d="M8.66571 35.77C8.61532 35.8938 8.43649 35.9309 8.27357 35.8463C8.10686 35.7655 8.01404 35.5967 8.06784 35.4725C8.11709 35.3447 8.2963 35.3096 8.46187 35.395C8.62858 35.4763 8.7233 35.6466 8.66533 35.7704L8.66571 35.77ZM9.59244 36.8959C9.48371 37.006 9.2704 36.9549 9.12567 36.7804C8.97563 36.6071 8.94759 36.3748 9.0586 36.263C9.17151 36.1533 9.37838 36.2052 9.52841 36.3785C9.67769 36.5543 9.70724 36.7845 9.59282 36.8963L9.59244 36.8959ZM10.4949 38.3303C10.3547 38.4368 10.1251 38.3373 9.98344 38.1158C9.84326 37.8938 9.84326 37.6277 9.98723 37.5217C10.1286 37.4153 10.3547 37.5114 10.4987 37.7309C10.6381 37.9557 10.6381 38.2218 10.4949 38.3299V38.3303ZM11.7304 39.7169C11.6054 39.8675 11.3379 39.8271 11.1424 39.622C10.9428 39.4211 10.8871 39.1352 11.0125 38.9851C11.1398 38.8341 11.4084 38.8761 11.605 39.0799C11.8047 39.2805 11.865 39.5668 11.7312 39.7165L11.7304 39.7169ZM13.4354 40.5218C13.3797 40.717 13.1228 40.8057 12.8633 40.7223C12.6045 40.6369 12.4352 40.4088 12.4882 40.2116C12.5412 40.0148 12.8 39.9228 13.0611 40.0115C13.3198 40.0965 13.4892 40.3234 13.4354 40.5218ZM15.3082 40.6708C15.3146 40.8762 15.0949 41.0462 14.8232 41.0503C14.5493 41.0573 14.3277 40.8907 14.325 40.6885C14.325 40.481 14.5402 40.3131 14.8138 40.3073C15.0854 40.3019 15.3086 40.467 15.3086 40.6704L15.3082 40.6708ZM17.0503 40.3482C17.0829 40.5482 16.8938 40.7541 16.6237 40.809C16.3584 40.8626 16.1122 40.738 16.0781 40.5396C16.0455 40.3341 16.238 40.1283 16.5032 40.075C16.7737 40.0243 17.0162 40.1452 17.0503 40.3486V40.3482Z" fill="#181616"/>
</svg>
