<svg width="128" height="128" viewBox="0 0 128 128" fill="none" xmlns="http://www.w3.org/2000/svg">
<path d="M0 126.914C1.26108 126.806 2.01773 126.263 2.01773 125.395V113.996C2.01773 112.802 2.01773 112.585 0 112.26V111.608H2.01773C4.5399 111.608 5.17044 111.5 5.17044 111.5L5.29655 111.608C5.29655 111.608 4.41379 112.477 4.41379 114.539V125.395C4.41379 126.046 4.28768 126.589 4.28768 126.589L6.93596 126.806L6.80985 127.457L0 127.566V126.914ZM9.20591 126.914C10.467 126.806 11.2236 126.263 11.2236 125.395V114.648C11.2236 113.019 10.7192 112.477 8.95369 112.26V111.608H9.83645C11.2236 111.608 12.6108 111.5 12.6108 111.5C12.6108 111.5 12.9892 112.042 13.6197 112.694L23.7084 122.681L24.8433 123.983V113.996C24.8433 112.911 24.8433 112.368 22.5734 112.151V111.5H27.87L27.9961 111.825C27.9961 111.825 26.1044 112.26 26.1044 114.214V127.457H25.3478L13.4936 115.516C13.1153 115.191 12.7369 114.756 12.4847 114.322V125.178C12.4847 125.937 12.3586 126.48 12.3586 126.48L14.8808 126.589L14.7547 127.24L9.33202 127.349V126.914H9.20591ZM30.3921 126.914C31.6532 126.806 32.4099 126.263 32.4099 125.395V113.996C32.4099 112.802 32.4099 112.585 30.3921 112.26V111.608H32.536C35.0581 111.608 35.6887 111.5 35.6887 111.5L35.8148 111.608C35.8148 111.608 34.932 112.477 34.932 114.539V118.773H35.4365C35.4365 118.773 35.9409 118.556 36.3192 118.121L41.7419 113.454C42.2463 113.019 42.2463 112.368 40.9852 112.26V111.608H46.1557L46.2818 111.934C46.2818 111.934 44.7685 112.26 42.7507 113.996L37.4542 118.447V118.664L44.1379 125.286C45.399 126.48 45.6512 126.589 46.534 126.697H46.7862L46.6601 127.457H42.6246L42.4985 127.349C42.4985 127.349 42.2463 126.589 40.3547 124.852L35.1842 119.641H34.8059V125.286C34.8059 125.937 34.6798 126.48 34.6798 126.48L37.202 126.697L37.0759 127.349L30.3921 127.457V126.914V126.914ZM48.6778 123.332H49.5606C49.5606 126.263 51.7044 127.023 53.5961 127.023C55.3616 127.023 57.1271 126.372 57.1271 124.526C57.1271 120.401 48.4256 120.401 48.4256 115.625C48.4256 113.237 50.4434 111.5 54.6049 111.5C56.6227 111.5 58.5143 111.934 59.1448 111.934L58.2621 115.625H57.3793C57.6315 113.888 56.6227 112.368 54.2266 112.368C52.335 112.368 50.8217 113.128 50.8217 114.865C50.8217 119.098 59.5231 118.664 59.5231 123.766C59.5231 126.589 56.6227 128 53.3438 128C50.9478 128 48.0473 127.24 48.0473 125.503C47.9212 125.069 48.0473 124.743 48.6778 123.332V123.332ZM72.2601 111.391C74.2778 111.391 76.8 111.825 78.3133 111.934L77.4305 115.516H76.4217C76.4217 113.019 74.0256 112.26 71.7557 112.26C67.468 112.26 64.6936 115.191 64.6936 119.098C64.6936 123.441 68.2246 126.263 72.7645 126.263C76.2956 126.263 78.3133 124.526 78.3133 124.526L78.6916 125.069C78.6916 125.069 76.5478 127.891 71.7557 127.891C66.8374 127.891 62.0453 124.96 62.0453 119.858C62.0453 114.973 66.2069 111.391 72.2601 111.391V111.391ZM79.3222 126.914C80.4571 126.806 80.9616 126.372 81.2138 125.829L87.7714 111.717L88.9064 111.5L95.0857 125.069C95.8424 126.697 96.3468 126.806 97.2296 126.914L97.1034 127.566H95.9685C94.9596 127.566 91.8069 127.674 91.8069 127.674V126.914C92.5635 126.914 93.3202 126.697 92.9419 125.937L91.3025 122.138H84.6187L84.2404 122.355L82.3488 126.697L84.7448 127.023L84.6187 127.674H79.4483V126.914H79.3222ZM87.6453 114.214L84.6187 121.161H90.6719L88.2759 115.733C88.0236 115.191 87.7714 114.539 87.6453 114.214V114.214ZM98.3645 126.914C99.6256 126.806 100.382 126.263 100.382 125.395V113.996C100.382 112.802 100.256 112.585 98.1123 112.26V111.608H105.048C108.201 111.608 111.858 112.477 111.858 115.95C111.858 119.75 107.697 121.052 104.67 120.835V120.184C107.949 120.075 109.084 118.339 109.084 116.493C109.084 113.671 106.435 112.477 103.535 112.477H103.157L102.904 112.694V125.286C102.904 125.937 102.778 126.48 102.778 126.48L105.427 126.697L105.3 127.349L98.4906 127.457V126.914H98.3645ZM114.002 126.914C115.263 126.806 116.02 126.263 116.02 125.395V113.996C116.02 112.802 115.894 112.585 113.75 112.26V111.608H125.226C126.361 111.608 127.243 111.5 127.243 111.5L126.361 115.516H125.478C125.604 113.019 124.721 112.585 122.451 112.585H118.794L118.542 112.802V118.99H123.712L123.965 117.579L124.973 117.47V121.704H123.712V119.967H118.92L118.668 120.184V125.286C118.668 126.046 118.542 126.589 118.542 126.589H122.956C125.352 126.589 125.73 126.155 127.117 123.658H128L126.991 127.566H118.037C116.65 127.566 114.002 127.674 114.002 127.674V126.914V126.914ZM109.588 92.8282C110.723 91.8512 109.588 88.2689 103.787 87.1833C98.3645 91.3084 104.292 95.4335 109.588 92.8282ZM39.7241 88.7031C35.6887 84.1438 20.6818 88.9202 27.2394 93.8052C31.401 96.8447 37.8325 93.0453 39.7241 88.7031ZM123.334 82.5155C120.812 76.3278 107.949 76.762 105.931 82.9497C105.931 85.0122 123.334 86.3149 123.334 82.5155ZM89.0325 72.5284C100.761 66.6664 141.241 62.7585 122.073 46.2581L73.7734 3.70455C67.8463 -1.18042 58.0099 -1.28898 52.335 3.70455L5.67488 44.8469C-10.0887 61.6729 16.3941 59.7189 27.7438 64.4953L16.1419 74.2653C20.1773 77.8476 40.733 81.2128 44.8946 84.7951L40.6069 95.7592C44.6424 99.3415 54.1005 95.9763 55.866 104.226C57.1271 110.088 72.8906 106.723 80.5833 101.947L76.8 95.1078C86.8887 86.2063 96.3468 91.8512 99.8778 82.9497C101.643 78.4989 84.997 76.1107 89.0325 72.5284V72.5284ZM64.1892 74.0482C59.2709 75.1337 35.1842 66.775 41.2374 66.775C42.4985 67.4263 61.2887 70.7915 65.9547 71.4429C67.468 71.66 66.333 73.0712 64.1892 74.0482V74.0482ZM79.1961 31.169L71.5034 27.6952L59.2709 34.3171L55.2355 20.5306L48.5517 30.6262H38.4631C34.3015 30.6262 33.9232 25.8498 37.5803 22.7017C44.1379 16.6226 51.5783 10.3264 55.6138 6.74409C59.6493 3.16178 66.8374 3.16178 70.8729 6.63553L89.2847 22.7017C91.0502 24.2214 91.0502 27.1524 90.0414 28.0209L80.8355 21.7247L79.1961 31.169V31.169Z" fill="black"/>
</svg>
