<svg width="47" height="52" viewBox="0 0 47 52" fill="none" xmlns="http://www.w3.org/2000/svg">
<path d="M0 0H47V52H0V0Z" fill="#F0DB4F"/>
<path d="M42.8725 39.4612C42.5274 37.0217 41.126 34.9727 36.9747 33.0621C35.5327 32.3099 33.925 31.7713 33.4459 30.5308C33.2758 29.809 33.2533 29.4023 33.3609 28.9654C33.6698 27.5472 35.1612 27.1051 36.3433 27.5118C37.1046 27.8014 37.8252 28.4673 38.2599 29.5296C40.2928 28.0355 40.2886 28.0453 41.7081 27.0184C41.1884 26.1039 40.9111 25.6819 40.5709 25.2906C39.3482 23.7405 37.6822 22.9422 35.0178 23.0033L33.63 23.207C32.3 23.5884 31.0326 24.3808 30.2893 25.4431C28.0592 28.3152 28.6952 33.3419 31.4089 35.4105C34.0823 37.6881 38.0096 38.2062 38.5113 40.336C38.9993 42.9432 36.8231 43.7873 34.66 43.4874C33.0658 43.1111 32.1792 42.1915 31.2207 40.5192C29.4565 41.678 29.4565 41.678 27.6426 42.8621C28.0728 43.9295 28.5248 44.4126 29.2458 45.3374C32.6583 49.2663 41.1978 49.0732 42.7295 43.1265C42.7916 42.9223 43.204 41.5606 42.8725 39.4612V39.4612ZM25.2285 23.3181H20.8222L20.8041 36.2486C20.8041 38.9986 20.9294 41.5196 20.5354 42.2923C19.8908 43.8121 18.2203 43.6237 17.459 43.329C16.6841 42.8967 16.2901 42.282 15.8336 41.4132C15.7083 41.1638 15.6142 40.9707 15.5826 40.9557L12 43.446C12.5957 44.8338 13.4733 46.0383 14.5974 46.8209C16.2765 47.9648 18.5334 48.3155 20.8937 47.7004C22.4298 47.1925 23.7552 46.1404 24.4492 44.5391C25.4524 42.4396 25.2372 39.8986 25.2282 37.0879C25.2507 32.5025 25.2285 27.918 25.2285 23.3181Z" fill="#323330"/>
</svg>
