<svg width="385" height="198" viewBox="0 0 385 198" fill="none" xmlns="http://www.w3.org/2000/svg">
<path d="M9.66883 21.9324C10.0327 21.9324 10.3966 22.0055 10.7605 22.1517C11.1763 22.2979 11.5142 22.5416 11.7741 22.8828L33.2952 53.1493L31.1898 53.0762L52.7888 22.8828C53.3606 22.1517 54.0624 21.8349 54.8941 21.9324C55.5179 21.9324 56.0378 22.1517 56.4536 22.5903C56.9215 22.9802 57.1554 23.492 57.1554 24.1256V70.9145C57.1554 71.4994 56.9215 72.0111 56.4536 72.4498C55.9858 72.8884 55.414 73.1077 54.7382 73.1077C54.0104 73.1077 53.4126 72.8884 52.9448 72.4498C52.4769 72.0111 52.243 71.4994 52.243 70.9145V28.5852L53.6465 28.7314L33.919 56.7316C33.763 57.0241 33.5291 57.2677 33.2172 57.4627C32.9053 57.6089 32.5414 57.6577 32.1255 57.6089C31.7617 57.6577 31.3978 57.6089 31.0339 57.4627C30.722 57.2677 30.4621 57.0241 30.2541 56.7316L10.4486 28.4389L11.9301 27.4885V70.9145C11.9301 71.4994 11.6962 72.0111 11.2283 72.4498C10.8125 72.8884 10.2666 73.1077 9.59086 73.1077C8.91507 73.1077 8.36925 72.8884 7.95339 72.4498C7.53752 72.0111 7.32959 71.4994 7.32959 70.9145V24.1256C7.32959 23.5407 7.53752 23.029 7.95339 22.5903C8.42124 22.1517 8.99305 21.9324 9.66883 21.9324ZM103.328 35.7497C104.004 35.7497 104.55 35.969 104.965 36.4077C105.433 36.8463 105.667 37.3825 105.667 38.0161V70.9145C105.667 71.4994 105.433 72.0111 104.965 72.4498C104.498 72.8884 103.952 73.1077 103.328 73.1077C102.652 73.1077 102.08 72.8884 101.613 72.4498C101.197 72.0111 100.989 71.4994 100.989 70.9145V62.2147L102.314 61.6298C102.314 62.9945 101.898 64.3836 101.067 65.797C100.287 67.2104 99.1953 68.5263 97.7918 69.7448C96.3882 70.9632 94.7248 71.9624 92.8014 72.7422C90.93 73.4733 88.9026 73.8388 86.7194 73.8388C83.1845 73.8388 80.0135 72.9859 77.2064 71.28C74.4513 69.5742 72.268 67.2348 70.6566 64.2617C69.0971 61.2887 68.3173 57.9501 68.3173 54.246C68.3173 50.4444 69.1231 47.1058 70.7345 44.2302C72.346 41.3059 74.5293 39.0152 77.2844 37.3581C80.0395 35.701 83.1585 34.8724 86.6414 34.8724C88.8766 34.8724 90.956 35.238 92.8793 35.969C94.8547 36.7001 96.5702 37.6993 98.0257 38.9665C99.4812 40.2337 100.599 41.6958 101.379 43.3529C102.21 44.9613 102.626 46.6428 102.626 48.3973L100.989 47.3007V38.0161C100.989 37.3825 101.197 36.8463 101.613 36.4077C102.08 35.969 102.652 35.7497 103.328 35.7497ZM87.1092 69.7448C89.8643 69.7448 92.3075 69.0868 94.4389 67.7709C96.5702 66.4062 98.2336 64.5541 99.4292 62.2147C100.677 59.8265 101.301 57.1703 101.301 54.246C101.301 51.3704 100.677 48.7873 99.4292 46.4965C98.2336 44.2058 96.5702 42.3781 94.4389 41.0135C92.3075 39.6488 89.8643 38.9665 87.1092 38.9665C84.4061 38.9665 81.9629 39.6244 79.7796 40.9404C77.6483 42.2563 75.9588 44.0596 74.7113 46.3503C73.5156 48.641 72.9178 51.2729 72.9178 54.246C72.9178 57.1703 73.5156 59.8265 74.7113 62.2147C75.9588 64.5541 77.6483 66.4062 79.7796 67.7709C81.9109 69.0868 84.3541 69.7448 87.1092 69.7448ZM134.553 34.8724C136.892 34.8724 139.049 35.2623 141.024 36.0421C143 36.7732 144.715 37.748 146.171 38.9665C147.678 40.1362 148.848 41.4034 149.68 42.7681C150.511 44.084 150.927 45.3512 150.927 46.5697L149.602 44.8151V38.0161C149.602 37.3825 149.81 36.8463 150.226 36.4077C150.693 35.969 151.265 35.7497 151.941 35.7497C152.669 35.7497 153.241 35.969 153.656 36.4077C154.072 36.8463 154.28 37.3825 154.28 38.0161V69.6717C154.28 73.5708 153.422 76.8606 151.707 79.5412C149.992 82.2218 147.652 84.2445 144.689 85.6092C141.778 87.0226 138.451 87.7293 134.709 87.7293C132.889 87.7293 130.966 87.51 128.938 87.0713C126.963 86.6327 125.248 86.0722 123.792 85.3898C122.389 84.7075 121.609 84.0008 121.453 83.2697C121.037 82.8311 120.829 82.3924 120.829 81.9538C120.881 81.5639 121.115 81.2227 121.531 80.9303C122.051 80.5891 122.596 80.5404 123.168 80.784C123.74 81.0765 124.598 81.442 125.741 81.8807C126.261 82.0269 126.963 82.2462 127.847 82.5386C128.73 82.8311 129.77 83.0748 130.966 83.2697C132.213 83.5134 133.513 83.6352 134.864 83.6352C139.543 83.6352 143.156 82.368 145.703 79.8336C148.302 77.348 149.602 74.0581 149.602 69.9641V62.9458L150.459 63.1651C149.992 64.9197 149.212 66.4549 148.12 67.7709C147.081 69.0868 145.833 70.2078 144.377 71.1338C142.922 72.0111 141.336 72.6691 139.621 73.1077C137.957 73.5951 136.294 73.8388 134.631 73.8388C131.044 73.8388 127.821 72.9859 124.962 71.28C122.103 69.5742 119.815 67.2591 118.1 64.3348C116.436 61.4105 115.605 58.0719 115.605 54.3191C115.605 50.6149 116.436 47.3007 118.1 44.3764C119.815 41.4034 122.077 39.0883 124.884 37.4312C127.743 35.7253 130.966 34.8724 134.553 34.8724ZM135.098 38.9665C132.239 38.9665 129.666 39.6488 127.379 41.0135C125.144 42.3294 123.376 44.1571 122.077 46.4965C120.829 48.7873 120.205 51.3948 120.205 54.3191C120.205 57.2434 120.829 59.8753 122.077 62.2147C123.376 64.5541 125.144 66.4062 127.379 67.7709C129.666 69.0868 132.239 69.7448 135.098 69.7448C137.957 69.7448 140.505 69.0868 142.74 67.7709C144.975 66.4549 146.743 64.6516 148.042 62.3609C149.342 60.0215 149.992 57.3409 149.992 54.3191C149.992 51.2973 149.342 48.641 148.042 46.3503C146.743 44.0109 144.975 42.2076 142.74 40.9404C140.505 39.6244 137.957 38.9665 135.098 38.9665Z" fill="white"/>
<path d="M61.4051 82.7822C62.1328 82.7822 62.7046 82.9772 63.1205 83.3671C63.5884 83.757 63.8223 84.2444 63.8223 84.8292C63.8223 85.1704 63.7443 85.536 63.5884 85.9259L42.7691 132.569C42.5092 133.056 42.1713 133.421 41.7554 133.665C41.3396 133.909 40.9237 134.031 40.5078 134.031C40.04 134.031 39.5981 133.909 39.1823 133.665C38.7664 133.421 38.4805 133.08 38.3246 132.642L17.5833 86.0721C17.5313 85.9259 17.4793 85.7553 17.4273 85.5603C17.3754 85.3654 17.3494 85.146 17.3494 84.9024C17.3494 84.2688 17.5833 83.757 18.0511 83.3671C18.571 82.9772 19.0908 82.7822 19.6106 82.7822C20.7023 82.7822 21.482 83.3184 21.9499 84.3906L41.4435 128.109H40.04L59.2218 84.2444C59.7416 83.2696 60.4694 82.7822 61.4051 82.7822ZM104.318 96.6727C104.994 96.6727 105.54 96.892 105.955 97.3307C106.423 97.7693 106.657 98.3054 106.657 98.939V131.837C106.657 132.422 106.423 132.934 105.955 133.373C105.488 133.811 104.942 134.031 104.318 134.031C103.642 134.031 103.07 133.811 102.603 133.373C102.187 132.934 101.979 132.422 101.979 131.837V123.138L103.304 122.553C103.304 123.917 102.888 125.307 102.057 126.72C101.277 128.133 100.185 129.449 98.7817 130.668C97.3782 131.886 95.7147 132.885 93.7914 133.665C91.92 134.396 89.8926 134.762 87.7093 134.762C84.1745 134.762 81.0035 133.909 78.1964 132.203C75.4413 130.497 73.258 128.158 71.6465 125.185C70.0871 122.212 69.3073 118.873 69.3073 115.169C69.3073 111.367 70.113 108.029 71.7245 105.153C73.336 102.229 75.5193 99.9382 78.2744 98.2811C81.0295 96.624 84.1485 95.7954 87.6314 95.7954C89.8666 95.7954 91.946 96.1609 93.8693 96.892C95.8447 97.6231 97.5601 98.6222 99.0157 99.8894C100.471 101.157 101.589 102.619 102.369 104.276C103.2 105.884 103.616 107.566 103.616 109.32L101.979 108.224V98.939C101.979 98.3054 102.187 97.7693 102.603 97.3307C103.07 96.892 103.642 96.6727 104.318 96.6727ZM88.0992 130.668C90.8543 130.668 93.2975 130.01 95.4288 128.694C97.5601 127.329 99.2236 125.477 100.419 123.138C101.667 120.749 102.291 118.093 102.291 115.169C102.291 112.293 101.667 109.71 100.419 107.42C99.2236 105.129 97.5601 103.301 95.4288 101.936C93.2975 100.572 90.8543 99.8894 88.0992 99.8894C85.3961 99.8894 82.9529 100.547 80.7696 101.863C78.6383 103.179 76.9488 104.983 75.7012 107.273C74.5056 109.564 73.9078 112.196 73.9078 115.169C73.9078 118.093 74.5056 120.749 75.7012 123.138C76.9488 125.477 78.6383 127.329 80.7696 128.694C82.9009 130.01 85.3441 130.668 88.0992 130.668ZM137.102 96.3803C140.377 96.3803 143.028 97.0382 145.055 98.3542C147.083 99.6701 148.564 101.449 149.5 103.691C150.488 105.933 150.982 108.419 150.982 111.148V131.837C150.982 132.422 150.748 132.934 150.28 133.373C149.812 133.811 149.266 134.031 148.642 134.031C147.915 134.031 147.343 133.811 146.927 133.373C146.511 132.934 146.303 132.422 146.303 131.837V111.148C146.303 109.15 145.965 107.346 145.289 105.738C144.666 104.13 143.626 102.862 142.17 101.936C140.715 100.962 138.766 100.474 136.322 100.474C134.139 100.474 132.06 100.962 130.084 101.936C128.161 102.862 126.601 104.13 125.406 105.738C124.21 107.346 123.612 109.15 123.612 111.148V131.837C123.612 132.422 123.379 132.934 122.911 133.373C122.443 133.811 121.897 134.031 121.273 134.031C120.545 134.031 119.974 133.811 119.558 133.373C119.142 132.934 118.934 132.422 118.934 131.837V82.1243C118.934 81.5394 119.142 81.0276 119.558 80.589C120.026 80.1504 120.597 79.931 121.273 79.931C121.949 79.931 122.495 80.1504 122.911 80.589C123.379 81.0276 123.612 81.5394 123.612 82.1243V105.811L121.819 108.37C121.923 106.859 122.417 105.397 123.301 103.983C124.236 102.521 125.432 101.23 126.887 100.109C128.343 98.939 129.954 98.0374 131.722 97.4038C133.489 96.7214 135.283 96.3803 137.102 96.3803ZM168.398 131.837C168.398 132.422 168.164 132.934 167.696 133.373C167.228 133.811 166.682 134.031 166.058 134.031C165.383 134.031 164.811 133.811 164.343 133.373C163.927 132.934 163.719 132.422 163.719 131.837V82.1243C163.719 81.5394 163.953 81.0276 164.421 80.589C164.889 80.1504 165.435 79.931 166.058 79.931C166.734 79.931 167.28 80.1504 167.696 80.589C168.164 81.0276 168.398 81.5394 168.398 82.1243V131.837ZM178.962 128.109C178.546 127.524 178.338 126.964 178.338 126.428C178.39 125.843 178.728 125.38 179.352 125.038C179.767 124.697 180.235 124.551 180.755 124.6C181.327 124.649 181.847 124.892 182.315 125.331C183.718 127.037 185.408 128.426 187.383 129.498C189.41 130.522 191.801 131.033 194.557 131.033C196.012 131.033 197.442 130.814 198.845 130.375C200.301 129.888 201.496 129.181 202.432 128.255C203.368 127.28 203.836 126.062 203.836 124.6C203.836 123.089 203.368 121.87 202.432 120.944C201.496 120.018 200.275 119.287 198.767 118.751C197.312 118.215 195.752 117.752 194.089 117.362C192.321 116.924 190.606 116.436 188.942 115.9C187.279 115.315 185.797 114.608 184.498 113.78C183.25 112.903 182.237 111.855 181.457 110.636C180.677 109.418 180.287 107.931 180.287 106.177C180.287 104.13 180.885 102.326 182.081 100.767C183.276 99.2071 184.888 97.9886 186.915 97.1113C188.994 96.234 191.334 95.7954 193.933 95.7954C195.232 95.7954 196.636 95.966 198.143 96.3071C199.651 96.5996 201.132 97.1113 202.588 97.8424C204.044 98.5735 205.343 99.5726 206.487 100.84C206.955 101.278 207.188 101.79 207.188 102.375C207.188 102.911 206.929 103.399 206.409 103.837C205.993 104.13 205.499 104.276 204.927 104.276C204.407 104.276 203.966 104.081 203.602 103.691C202.354 102.375 200.873 101.376 199.157 100.694C197.442 100.011 195.596 99.6701 193.621 99.6701C192.113 99.6701 190.684 99.9138 189.332 100.401C188.033 100.84 186.941 101.522 186.057 102.448C185.174 103.374 184.732 104.593 184.732 106.104C184.836 107.517 185.356 108.662 186.291 109.54C187.279 110.417 188.553 111.148 190.112 111.733C191.723 112.318 193.517 112.854 195.492 113.341C197.156 113.731 198.741 114.194 200.249 114.73C201.808 115.266 203.16 115.949 204.303 116.777C205.499 117.557 206.435 118.556 207.111 119.775C207.838 120.993 208.202 122.528 208.202 124.381C208.202 126.525 207.552 128.377 206.253 129.937C205.005 131.496 203.316 132.69 201.184 133.519C199.053 134.348 196.688 134.762 194.089 134.762C191.282 134.762 188.553 134.25 185.901 133.227C183.302 132.203 180.989 130.497 178.962 128.109ZM215.2 96.8189H233.368C233.992 96.8189 234.512 97.0382 234.928 97.4769C235.344 97.8668 235.552 98.3542 235.552 98.939C235.552 99.4751 235.344 99.9382 234.928 100.328C234.512 100.718 233.992 100.913 233.368 100.913H215.2C214.577 100.913 214.031 100.718 213.563 100.328C213.147 99.8894 212.939 99.402 212.939 98.8659C212.939 98.2811 213.147 97.7937 213.563 97.4038C214.031 97.0139 214.577 96.8189 215.2 96.8189ZM223.232 86.5107C223.908 86.5107 224.453 86.73 224.869 87.1687C225.337 87.6073 225.571 88.1191 225.571 88.704V125.404C225.571 126.769 225.753 127.792 226.117 128.475C226.533 129.157 227.053 129.62 227.676 129.864C228.3 130.059 228.924 130.156 229.548 130.156C229.964 130.156 230.327 130.107 230.639 130.01C231.003 129.864 231.393 129.79 231.809 129.79C232.277 129.79 232.667 129.961 232.979 130.302C233.342 130.643 233.524 131.082 233.524 131.618C233.524 132.3 233.109 132.885 232.277 133.373C231.445 133.811 230.457 134.031 229.314 134.031C228.846 134.031 228.144 134.006 227.208 133.958C226.273 133.86 225.311 133.592 224.323 133.153C223.336 132.666 222.504 131.837 221.828 130.668C221.204 129.498 220.893 127.817 220.893 125.623V88.704C220.893 88.1191 221.1 87.6073 221.516 87.1687C221.984 86.73 222.556 86.5107 223.232 86.5107ZM246.535 134.031C245.807 134.031 245.235 133.811 244.819 133.373C244.404 132.934 244.196 132.422 244.196 131.837V99.0852C244.196 98.5004 244.404 97.9886 244.819 97.55C245.287 97.1113 245.859 96.892 246.535 96.892C247.211 96.892 247.756 97.1113 248.172 97.55C248.64 97.9886 248.874 98.5004 248.874 99.0852V110.051L247.704 110.271C247.86 108.565 248.302 106.883 249.03 105.226C249.81 103.52 250.849 101.961 252.149 100.547C253.449 99.134 254.982 97.9886 256.75 97.1113C258.569 96.234 260.596 95.7954 262.832 95.7954C263.767 95.7954 264.677 95.9903 265.561 96.3803C266.444 96.7214 266.886 97.3063 266.886 98.1348C266.886 98.8659 266.678 99.4264 266.262 99.8163C265.847 100.206 265.353 100.401 264.781 100.401C264.313 100.401 263.793 100.279 263.221 100.036C262.702 99.792 262 99.6701 261.116 99.6701C259.661 99.6701 258.205 100.084 256.75 100.913C255.294 101.693 253.968 102.765 252.773 104.13C251.577 105.494 250.616 107.03 249.888 108.735C249.212 110.393 248.874 112.074 248.874 113.78V131.837C248.874 132.422 248.64 132.934 248.172 133.373C247.704 133.811 247.159 134.031 246.535 134.031ZM310.027 114.84C310.027 117.728 309.54 120.378 308.565 122.79C307.63 125.166 306.285 127.25 304.53 129.041C302.776 130.796 300.69 132.166 298.273 133.153C295.894 134.104 293.282 134.579 290.436 134.579C287.59 134.579 284.958 134.104 282.541 133.153C280.163 132.166 278.097 130.796 276.342 129.041C274.588 127.25 273.223 125.166 272.249 122.79C271.313 120.378 270.845 117.728 270.845 114.84C270.845 111.952 271.313 109.32 272.249 106.944C273.223 104.532 274.588 102.448 276.342 100.694C278.097 98.9025 280.163 97.5317 282.541 96.5813C284.958 95.5943 287.59 95.1009 290.436 95.1009C293.282 95.1009 295.894 95.5943 298.273 96.5813C300.69 97.5317 302.776 98.9025 304.53 100.694C306.285 102.448 307.63 104.532 308.565 106.944C309.54 109.32 310.027 111.952 310.027 114.84ZM306.285 114.84C306.285 111.587 305.602 108.735 304.238 106.286C302.912 103.801 301.06 101.863 298.682 100.474C296.304 99.0852 293.555 98.3907 290.436 98.3907C287.356 98.3907 284.608 99.0852 282.19 100.474C279.812 101.863 277.941 103.801 276.576 106.286C275.251 108.735 274.588 111.587 274.588 114.84C274.588 118.093 275.251 120.963 276.576 123.448C277.941 125.897 279.812 127.817 282.19 129.206C284.608 130.595 287.356 131.289 290.436 131.289C293.555 131.289 296.304 130.595 298.682 129.206C301.06 127.817 302.912 125.897 304.238 123.448C305.602 120.963 306.285 118.093 306.285 114.84ZM295.466 91.5369C294.725 91.5369 294.14 91.3541 293.711 90.9886C293.282 90.5865 293.068 90.0382 293.068 89.3436V88.7953C293.068 88.1008 293.282 87.5708 293.711 87.2052C294.179 86.8032 294.783 86.6021 295.524 86.6021C296.265 86.6021 296.85 86.8032 297.279 87.2052C297.707 87.5708 297.922 88.1008 297.922 88.7953V89.3436C297.922 90.0747 297.707 90.623 297.279 90.9886C296.85 91.3541 296.245 91.5369 295.466 91.5369ZM285.407 91.5369C284.666 91.5369 284.081 91.3541 283.652 90.9886C283.224 90.5865 283.009 90.0382 283.009 89.3436V88.7953C283.009 88.1008 283.224 87.5708 283.652 87.2052C284.12 86.8032 284.725 86.6021 285.465 86.6021C286.206 86.6021 286.791 86.8032 287.22 87.2052C287.649 87.5708 287.863 88.1008 287.863 88.7953V89.3436C287.863 90.0747 287.649 90.623 287.22 90.9886C286.791 91.3541 286.187 91.5369 285.407 91.5369ZM336.908 96.3803C340.13 96.3803 342.886 97.1844 345.173 98.7928C347.46 100.352 349.02 102.692 349.851 105.811L348.76 106.104L349.228 104.788C349.903 103.325 351.021 101.961 352.58 100.694C354.192 99.3777 356.011 98.3298 358.039 97.55C360.066 96.7702 362.119 96.3803 364.199 96.3803C367.474 96.3803 370.099 97.0382 372.074 98.3542C374.101 99.6701 375.557 101.449 376.441 103.691C377.376 105.884 377.844 108.37 377.844 111.148V131.837C377.844 132.422 377.61 132.934 377.142 133.373C376.727 133.811 376.181 134.031 375.505 134.031C374.829 134.031 374.257 133.811 373.79 133.373C373.374 132.934 373.166 132.422 373.166 131.837V111.367C373.166 109.369 372.828 107.541 372.152 105.884C371.476 104.227 370.411 102.911 368.955 101.936C367.5 100.962 365.55 100.474 363.107 100.474C360.976 100.474 358.922 100.962 356.947 101.936C355.024 102.911 353.438 104.227 352.189 105.884C350.995 107.541 350.397 109.369 350.397 111.367V131.837C350.397 132.422 350.163 132.934 349.695 133.373C349.279 133.811 348.734 134.031 348.058 134.031C347.382 134.031 346.81 133.811 346.342 133.373C345.927 132.934 345.719 132.422 345.719 131.837V111.148C345.719 109.15 345.407 107.346 344.783 105.738C344.159 104.13 343.145 102.862 341.742 101.936C340.338 100.962 338.441 100.474 336.05 100.474C333.918 100.474 331.891 100.962 329.968 101.936C328.096 102.862 326.563 104.13 325.367 105.738C324.224 107.346 323.652 109.15 323.652 111.148V131.837C323.652 132.422 323.418 132.934 322.95 133.373C322.482 133.811 321.936 134.031 321.313 134.031C320.585 134.031 320.013 133.811 319.597 133.373C319.181 132.934 318.973 132.422 318.973 131.837V99.0852C318.973 98.5004 319.181 97.9886 319.597 97.55C320.065 97.1113 320.637 96.892 321.313 96.892C321.988 96.892 322.534 97.1113 322.95 97.55C323.418 97.9886 323.652 98.5004 323.652 99.0852V105.884L321.546 108.589C321.702 107.127 322.196 105.665 323.028 104.203C323.912 102.741 325.055 101.425 326.459 100.255C327.862 99.0852 329.448 98.1592 331.215 97.4769C333.035 96.7458 334.932 96.3803 336.908 96.3803Z" fill="white"/>
<path d="M182.526 45.5339C185.957 45.5339 188.686 46.1919 190.713 47.5078C192.792 48.775 194.274 50.5296 195.158 52.7716C196.093 54.9648 196.561 57.4018 196.561 60.0824V81.576C196.561 82.1609 196.327 82.6726 195.859 83.1113C195.392 83.5499 194.846 83.7693 194.222 83.7693C193.494 83.7693 192.922 83.5499 192.507 83.1113C192.091 82.6726 191.883 82.1609 191.883 81.576V60.3017C191.883 58.3521 191.545 56.5732 190.869 54.9648C190.193 53.3565 189.076 52.0649 187.516 51.0901C186.009 50.1153 184.007 49.628 181.512 49.628C179.277 49.628 177.146 50.1153 175.118 51.0901C173.143 52.0649 171.531 53.3565 170.284 54.9648C169.036 56.5732 168.412 58.3521 168.412 60.3017V81.576C168.412 82.1609 168.178 82.6726 167.711 83.1113C167.243 83.5499 166.697 83.7693 166.073 83.7693C165.345 83.7693 164.774 83.5499 164.358 83.1113C163.942 82.6726 163.734 82.1609 163.734 81.576V48.8238C163.734 48.2389 163.942 47.7272 164.358 47.2885C164.826 46.8499 165.397 46.6305 166.073 46.6305C166.749 46.6305 167.295 46.8499 167.711 47.2885C168.178 47.7272 168.412 48.2389 168.412 48.8238V54.9648L166.619 57.5967C166.723 56.0371 167.243 54.5506 168.178 53.1371C169.166 51.675 170.414 50.3834 171.921 49.2624C173.429 48.0927 175.092 47.191 176.912 46.5574C178.783 45.8751 180.654 45.5339 182.526 45.5339ZM238.599 46.6305C239.275 46.6305 239.821 46.8499 240.237 47.2885C240.705 47.7272 240.939 48.2389 240.939 48.8238V69.4401C240.939 74.2653 239.483 77.945 236.572 80.4794C233.661 83.0138 229.736 84.281 224.798 84.281C219.911 84.281 216.013 83.0138 213.102 80.4794C210.243 77.945 208.813 74.2653 208.813 69.4401V48.8238C208.813 48.2389 209.021 47.7272 209.437 47.2885C209.905 46.8499 210.476 46.6305 211.152 46.6305C211.828 46.6305 212.374 46.8499 212.79 47.2885C213.258 47.7272 213.491 48.2389 213.491 48.8238V69.4401C213.491 72.9493 214.479 75.6299 216.455 77.482C218.482 79.2853 221.263 80.187 224.798 80.187C228.385 80.187 231.192 79.2853 233.219 77.482C235.246 75.6299 236.26 72.9493 236.26 69.4401V48.8238C236.26 48.2389 236.468 47.7272 236.884 47.2885C237.3 46.8499 237.872 46.6305 238.599 46.6305ZM250.945 77.8475C250.529 77.2627 250.322 76.7022 250.322 76.1661C250.373 75.5812 250.711 75.1182 251.335 74.777C251.751 74.4358 252.219 74.2896 252.739 74.3384C253.311 74.3871 253.83 74.6308 254.298 75.0694C255.702 76.7753 257.391 78.1643 259.367 79.2366C261.394 80.2601 263.785 80.7718 266.54 80.7718C267.996 80.7718 269.425 80.5525 270.829 80.1139C272.284 79.6265 273.48 78.9198 274.416 77.9937C275.351 77.019 275.819 75.8005 275.819 74.3384C275.819 72.8275 275.351 71.609 274.416 70.683C273.48 69.7569 272.258 69.0259 270.751 68.4897C269.295 67.9536 267.736 67.4906 266.072 67.1007C264.305 66.6621 262.59 66.1747 260.926 65.6385C259.263 65.0537 257.781 64.347 256.482 63.5184C255.234 62.6411 254.22 61.5933 253.441 60.3748C252.661 59.1563 252.271 57.6698 252.271 55.9152C252.271 53.8682 252.869 52.0649 254.064 50.5053C255.26 48.9456 256.871 47.7272 258.899 46.8499C260.978 45.9726 263.317 45.5339 265.916 45.5339C267.216 45.5339 268.62 45.7045 270.127 46.0457C271.635 46.3381 273.116 46.8499 274.572 47.581C276.027 48.312 277.327 49.3112 278.47 50.5784C278.938 51.017 279.172 51.5288 279.172 52.1136C279.172 52.6497 278.912 53.1371 278.392 53.5758C277.977 53.8682 277.483 54.0144 276.911 54.0144C276.391 54.0144 275.949 53.8195 275.585 53.4296C274.338 52.1136 272.856 51.1145 271.141 50.4321C269.425 49.7498 267.58 49.4086 265.605 49.4086C264.097 49.4086 262.668 49.6523 261.316 50.1397C260.016 50.5784 258.925 51.2607 258.041 52.1867C257.157 53.1128 256.715 54.3312 256.715 55.8421C256.819 57.2555 257.339 58.4009 258.275 59.2782C259.263 60.1555 260.536 60.8865 262.096 61.4714C263.707 62.0563 265.501 62.5924 267.476 63.0798C269.139 63.4697 270.725 63.9327 272.232 64.4688C273.792 65.0049 275.143 65.6873 276.287 66.5158C277.483 67.2957 278.418 68.2948 279.094 69.5133C279.822 70.7317 280.186 72.267 280.186 74.119C280.186 76.2635 279.536 78.1156 278.236 79.6752C276.989 81.2349 275.299 82.4289 273.168 83.2575C271.037 84.0861 268.672 84.5003 266.072 84.5003C263.265 84.5003 260.536 83.9886 257.885 82.9651C255.286 81.9416 252.973 80.2357 250.945 77.8475Z" fill="white"/>
<path d="M168.516 177.457C168.464 178.09 168.179 178.626 167.659 179.065C167.191 179.504 166.645 179.723 166.021 179.723C165.293 179.723 164.696 179.504 164.228 179.065C163.812 178.626 163.604 178.09 163.604 177.457V130.814C163.604 130.18 163.838 129.644 164.306 129.206C164.774 128.767 165.371 128.548 166.099 128.548C166.723 128.548 167.269 128.767 167.737 129.206C168.256 129.644 168.516 130.18 168.516 130.814V177.457Z" fill="white"/>
</svg>
