<svg width="237" height="130" viewBox="0 0 237 130" fill="none" xmlns="http://www.w3.org/2000/svg">
<path d="M5.952 14.4C6.176 14.4 6.4 14.448 6.624 14.544C6.88 14.64 7.088 14.8 7.248 15.024L20.496 34.896L19.2 34.848L32.496 15.024C32.848 14.544 33.28 14.336 33.792 14.4C34.176 14.4 34.496 14.544 34.752 14.832C35.04 15.088 35.184 15.424 35.184 15.84V46.56C35.184 46.944 35.04 47.28 34.752 47.568C34.464 47.856 34.112 48 33.696 48C33.248 48 32.88 47.856 32.592 47.568C32.304 47.28 32.16 46.944 32.16 46.56V18.768L33.024 18.864L20.88 37.248C20.784 37.44 20.64 37.6 20.448 37.728C20.256 37.824 20.032 37.856 19.776 37.824C19.552 37.856 19.328 37.824 19.104 37.728C18.912 37.6 18.752 37.44 18.624 37.248L6.432 18.672L7.344 18.048V46.56C7.344 46.944 7.2 47.28 6.912 47.568C6.656 47.856 6.32 48 5.904 48C5.488 48 5.152 47.856 4.896 47.568C4.64 47.28 4.512 46.944 4.512 46.56V15.84C4.512 15.456 4.64 15.12 4.896 14.832C5.184 14.544 5.536 14.4 5.952 14.4ZM63.6071 23.472C64.0231 23.472 64.3591 23.616 64.6151 23.904C64.9031 24.192 65.0471 24.544 65.0471 24.96V46.56C65.0471 46.944 64.9031 47.28 64.6151 47.568C64.3271 47.856 63.9911 48 63.6071 48C63.1911 48 62.8391 47.856 62.5511 47.568C62.2951 47.28 62.1671 46.944 62.1671 46.56V40.848L62.9831 40.464C62.9831 41.36 62.7271 42.272 62.2151 43.2C61.7351 44.128 61.0631 44.992 60.1991 45.792C59.3351 46.592 58.3111 47.248 57.1271 47.76C55.9751 48.24 54.7271 48.48 53.3831 48.48C51.2071 48.48 49.2551 47.92 47.5271 46.8C45.8311 45.68 44.4871 44.144 43.4951 42.192C42.5351 40.24 42.0551 38.048 42.0551 35.616C42.0551 33.12 42.5511 30.928 43.5431 29.04C44.5351 27.12 45.8791 25.616 47.5751 24.528C49.2711 23.44 51.1911 22.896 53.3351 22.896C54.7111 22.896 55.9911 23.136 57.1751 23.616C58.3911 24.096 59.4471 24.752 60.3431 25.584C61.2391 26.416 61.9271 27.376 62.4071 28.464C62.9191 29.52 63.1751 30.624 63.1751 31.776L62.1671 31.056V24.96C62.1671 24.544 62.2951 24.192 62.5511 23.904C62.8391 23.616 63.1911 23.472 63.6071 23.472ZM53.6231 45.792C55.3191 45.792 56.8231 45.36 58.1351 44.496C59.4471 43.6 60.4711 42.384 61.2071 40.848C61.9751 39.28 62.3591 37.536 62.3591 35.616C62.3591 33.728 61.9751 32.032 61.2071 30.528C60.4711 29.024 59.4471 27.824 58.1351 26.928C56.8231 26.032 55.3191 25.584 53.6231 25.584C51.9591 25.584 50.4551 26.016 49.1111 26.88C47.7991 27.744 46.7591 28.928 45.9911 30.432C45.2551 31.936 44.8871 33.664 44.8871 35.616C44.8871 37.536 45.2551 39.28 45.9911 40.848C46.7591 42.384 47.7991 43.6 49.1111 44.496C50.4231 45.36 51.9271 45.792 53.6231 45.792ZM82.8285 22.896C84.2685 22.896 85.5965 23.152 86.8125 23.664C88.0285 24.144 89.0845 24.784 89.9805 25.584C90.9085 26.352 91.6285 27.184 92.1405 28.08C92.6525 28.944 92.9085 29.776 92.9085 30.576L92.0925 29.424V24.96C92.0925 24.544 92.2205 24.192 92.4765 23.904C92.7645 23.616 93.1165 23.472 93.5325 23.472C93.9805 23.472 94.3325 23.616 94.5885 23.904C94.8445 24.192 94.9725 24.544 94.9725 24.96V45.744C94.9725 48.304 94.4445 50.464 93.3885 52.224C92.3325 53.984 90.8925 55.312 89.0685 56.208C87.2765 57.136 85.2285 57.6 82.9245 57.6C81.8045 57.6 80.6205 57.456 79.3725 57.168C78.1565 56.88 77.1005 56.512 76.2045 56.064C75.3405 55.616 74.8605 55.152 74.7645 54.672C74.5085 54.384 74.3805 54.096 74.3805 53.808C74.4125 53.552 74.5565 53.328 74.8125 53.136C75.1325 52.912 75.4685 52.88 75.8205 53.04C76.1725 53.232 76.7005 53.472 77.4045 53.76C77.7245 53.856 78.1565 54 78.7005 54.192C79.2445 54.384 79.8845 54.544 80.6205 54.672C81.3885 54.832 82.1885 54.912 83.0205 54.912C85.9005 54.912 88.1245 54.08 89.6925 52.416C91.2925 50.784 92.0925 48.624 92.0925 45.936V41.328L92.6205 41.472C92.3325 42.624 91.8525 43.632 91.1805 44.496C90.5405 45.36 89.7725 46.096 88.8765 46.704C87.9805 47.28 87.0045 47.712 85.9485 48C84.9245 48.32 83.9005 48.48 82.8765 48.48C80.6685 48.48 78.6845 47.92 76.9245 46.8C75.1645 45.68 73.7565 44.16 72.7005 42.24C71.6765 40.32 71.1645 38.128 71.1645 35.664C71.1645 33.232 71.6765 31.056 72.7005 29.136C73.7565 27.184 75.1485 25.664 76.8765 24.576C78.6365 23.456 80.6205 22.896 82.8285 22.896ZM83.1645 25.584C81.4045 25.584 79.8205 26.032 78.4125 26.928C77.0365 27.792 75.9485 28.992 75.1485 30.528C74.3805 32.032 73.9965 33.744 73.9965 35.664C73.9965 37.584 74.3805 39.312 75.1485 40.848C75.9485 42.384 77.0365 43.6 78.4125 44.496C79.8205 45.36 81.4045 45.792 83.1645 45.792C84.9245 45.792 86.4925 45.36 87.8685 44.496C89.2445 43.632 90.3325 42.448 91.1325 40.944C91.9325 39.408 92.3325 37.648 92.3325 35.664C92.3325 33.68 91.9325 31.936 91.1325 30.432C90.3325 28.896 89.2445 27.712 87.8685 26.88C86.4925 26.016 84.9245 25.584 83.1645 25.584Z" fill="white"/>
<path d="M37.8 54.352C38.248 54.352 38.6 54.48 38.856 54.736C39.144 54.992 39.288 55.312 39.288 55.696C39.288 55.92 39.24 56.16 39.144 56.416L26.328 87.04C26.168 87.36 25.96 87.6 25.704 87.76C25.448 87.92 25.192 88 24.936 88C24.648 88 24.376 87.92 24.12 87.76C23.864 87.6 23.688 87.376 23.592 87.088L10.824 56.512C10.792 56.416 10.76 56.304 10.728 56.176C10.696 56.048 10.68 55.904 10.68 55.744C10.68 55.328 10.824 54.992 11.112 54.736C11.432 54.48 11.752 54.352 12.072 54.352C12.744 54.352 13.224 54.704 13.512 55.408L25.512 84.112H24.648L36.456 55.312C36.776 54.672 37.224 54.352 37.8 54.352ZM64.2165 63.472C64.6325 63.472 64.9685 63.616 65.2245 63.904C65.5125 64.192 65.6565 64.544 65.6565 64.96V86.56C65.6565 86.944 65.5125 87.28 65.2245 87.568C64.9365 87.856 64.6005 88 64.2165 88C63.8005 88 63.4485 87.856 63.1605 87.568C62.9045 87.28 62.7765 86.944 62.7765 86.56V80.848L63.5925 80.464C63.5925 81.36 63.3365 82.272 62.8245 83.2C62.3445 84.128 61.6725 84.992 60.8085 85.792C59.9445 86.592 58.9205 87.248 57.7365 87.76C56.5845 88.24 55.3365 88.48 53.9925 88.48C51.8165 88.48 49.8645 87.92 48.1365 86.8C46.4405 85.68 45.0965 84.144 44.1045 82.192C43.1445 80.24 42.6645 78.048 42.6645 75.616C42.6645 73.12 43.1605 70.928 44.1525 69.04C45.1445 67.12 46.4885 65.616 48.1845 64.528C49.8805 63.44 51.8005 62.896 53.9445 62.896C55.3205 62.896 56.6005 63.136 57.7845 63.616C59.0005 64.096 60.0565 64.752 60.9525 65.584C61.8485 66.416 62.5365 67.376 63.0165 68.464C63.5285 69.52 63.7845 70.624 63.7845 71.776L62.7765 71.056V64.96C62.7765 64.544 62.9045 64.192 63.1605 63.904C63.4485 63.616 63.8005 63.472 64.2165 63.472ZM54.2325 85.792C55.9285 85.792 57.4325 85.36 58.7445 84.496C60.0565 83.6 61.0805 82.384 61.8165 80.848C62.5845 79.28 62.9685 77.536 62.9685 75.616C62.9685 73.728 62.5845 72.032 61.8165 70.528C61.0805 69.024 60.0565 67.824 58.7445 66.928C57.4325 66.032 55.9285 65.584 54.2325 65.584C52.5685 65.584 51.0645 66.016 49.7205 66.88C48.4085 67.744 47.3685 68.928 46.6005 70.432C45.8645 71.936 45.4965 73.664 45.4965 75.616C45.4965 77.536 45.8645 79.28 46.6005 80.848C47.3685 82.384 48.4085 83.6 49.7205 84.496C51.0325 85.36 52.5365 85.792 54.2325 85.792ZM84.3979 63.28C86.4139 63.28 88.0459 63.712 89.2939 64.576C90.5419 65.44 91.4539 66.608 92.0299 68.08C92.6379 69.552 92.9419 71.184 92.9419 72.976V86.56C92.9419 86.944 92.7979 87.28 92.5099 87.568C92.2219 87.856 91.8859 88 91.5019 88C91.0539 88 90.7019 87.856 90.4459 87.568C90.1899 87.28 90.0619 86.944 90.0619 86.56V72.976C90.0619 71.664 89.8539 70.48 89.4379 69.424C89.0539 68.368 88.4139 67.536 87.5179 66.928C86.6219 66.288 85.4219 65.968 83.9179 65.968C82.5739 65.968 81.2939 66.288 80.0779 66.928C78.8939 67.536 77.9339 68.368 77.1979 69.424C76.4619 70.48 76.0939 71.664 76.0939 72.976V86.56C76.0939 86.944 75.9499 87.28 75.6619 87.568C75.3739 87.856 75.0379 88 74.6539 88C74.2059 88 73.8539 87.856 73.5979 87.568C73.3419 87.28 73.2139 86.944 73.2139 86.56V53.92C73.2139 53.536 73.3419 53.2 73.5979 52.912C73.8859 52.624 74.2379 52.48 74.6539 52.48C75.0699 52.48 75.4059 52.624 75.6619 52.912C75.9499 53.2 76.0939 53.536 76.0939 53.92V69.472L74.9899 71.152C75.0539 70.16 75.3579 69.2 75.9019 68.272C76.4779 67.312 77.2139 66.464 78.1099 65.728C79.0059 64.96 79.9979 64.368 81.0859 63.952C82.1739 63.504 83.2779 63.28 84.3979 63.28ZM103.663 86.56C103.663 86.944 103.519 87.28 103.231 87.568C102.943 87.856 102.607 88 102.223 88C101.807 88 101.455 87.856 101.167 87.568C100.911 87.28 100.783 86.944 100.783 86.56V53.92C100.783 53.536 100.927 53.2 101.215 52.912C101.503 52.624 101.839 52.48 102.223 52.48C102.639 52.48 102.975 52.624 103.231 52.912C103.519 53.2 103.663 53.536 103.663 53.92V86.56ZM110.166 84.112C109.91 83.728 109.782 83.36 109.782 83.008C109.814 82.624 110.022 82.32 110.406 82.096C110.662 81.872 110.95 81.776 111.27 81.808C111.622 81.84 111.942 82 112.23 82.288C113.094 83.408 114.134 84.32 115.35 85.024C116.598 85.696 118.07 86.032 119.766 86.032C120.662 86.032 121.542 85.888 122.406 85.6C123.302 85.28 124.038 84.816 124.614 84.208C125.19 83.568 125.478 82.768 125.478 81.808C125.478 80.816 125.19 80.016 124.614 79.408C124.038 78.8 123.286 78.32 122.358 77.968C121.462 77.616 120.502 77.312 119.478 77.056C118.39 76.768 117.334 76.448 116.31 76.096C115.286 75.712 114.374 75.248 113.574 74.704C112.806 74.128 112.182 73.44 111.702 72.64C111.222 71.84 110.982 70.864 110.982 69.712C110.982 68.368 111.35 67.184 112.086 66.16C112.822 65.136 113.814 64.336 115.062 63.76C116.342 63.184 117.782 62.896 119.382 62.896C120.182 62.896 121.046 63.008 121.974 63.232C122.902 63.424 123.814 63.76 124.71 64.24C125.606 64.72 126.406 65.376 127.11 66.208C127.398 66.496 127.542 66.832 127.542 67.216C127.542 67.568 127.382 67.888 127.062 68.176C126.806 68.368 126.502 68.464 126.15 68.464C125.83 68.464 125.558 68.336 125.334 68.08C124.566 67.216 123.654 66.56 122.598 66.112C121.542 65.664 120.406 65.44 119.19 65.44C118.262 65.44 117.382 65.6 116.55 65.92C115.75 66.208 115.078 66.656 114.534 67.264C113.99 67.872 113.718 68.672 113.718 69.664C113.782 70.592 114.102 71.344 114.678 71.92C115.286 72.496 116.07 72.976 117.03 73.36C118.022 73.744 119.126 74.096 120.342 74.416C121.366 74.672 122.342 74.976 123.27 75.328C124.23 75.68 125.062 76.128 125.766 76.672C126.502 77.184 127.078 77.84 127.494 78.64C127.942 79.44 128.166 80.448 128.166 81.664C128.166 83.072 127.766 84.288 126.966 85.312C126.198 86.336 125.158 87.12 123.846 87.664C122.534 88.208 121.078 88.48 119.478 88.48C117.75 88.48 116.07 88.144 114.438 87.472C112.838 86.8 111.414 85.68 110.166 84.112ZM132.474 63.568H143.658C144.042 63.568 144.362 63.712 144.618 64C144.874 64.256 145.002 64.576 145.002 64.96C145.002 65.312 144.874 65.616 144.618 65.872C144.362 66.128 144.042 66.256 143.658 66.256H132.474C132.09 66.256 131.754 66.128 131.466 65.872C131.21 65.584 131.082 65.264 131.082 64.912C131.082 64.528 131.21 64.208 131.466 63.952C131.754 63.696 132.09 63.568 132.474 63.568ZM137.418 56.8C137.834 56.8 138.17 56.944 138.426 57.232C138.714 57.52 138.858 57.856 138.858 58.24V82.336C138.858 83.232 138.97 83.904 139.194 84.352C139.45 84.8 139.77 85.104 140.154 85.264C140.538 85.392 140.922 85.456 141.306 85.456C141.562 85.456 141.786 85.424 141.978 85.36C142.202 85.264 142.442 85.216 142.698 85.216C142.986 85.216 143.226 85.328 143.418 85.552C143.642 85.776 143.754 86.064 143.754 86.416C143.754 86.864 143.498 87.248 142.986 87.568C142.474 87.856 141.866 88 141.162 88C140.874 88 140.442 87.984 139.866 87.952C139.29 87.888 138.698 87.712 138.09 87.424C137.482 87.104 136.97 86.56 136.554 85.792C136.17 85.024 135.978 83.92 135.978 82.48V58.24C135.978 57.856 136.106 57.52 136.362 57.232C136.65 56.944 137.002 56.8 137.418 56.8ZM151.763 88C151.315 88 150.963 87.856 150.707 87.568C150.451 87.28 150.323 86.944 150.323 86.56V65.056C150.323 64.672 150.451 64.336 150.707 64.048C150.995 63.76 151.347 63.616 151.763 63.616C152.179 63.616 152.515 63.76 152.771 64.048C153.059 64.336 153.203 64.672 153.203 65.056V72.256L152.483 72.4C152.579 71.28 152.851 70.176 153.299 69.088C153.779 67.968 154.419 66.944 155.219 66.016C156.019 65.088 156.963 64.336 158.051 63.76C159.171 63.184 160.419 62.896 161.795 62.896C162.371 62.896 162.931 63.024 163.475 63.28C164.019 63.504 164.291 63.888 164.291 64.432C164.291 64.912 164.163 65.28 163.907 65.536C163.651 65.792 163.347 65.92 162.995 65.92C162.707 65.92 162.387 65.84 162.035 65.68C161.715 65.52 161.283 65.44 160.739 65.44C159.843 65.44 158.947 65.712 158.051 66.256C157.155 66.768 156.339 67.472 155.603 68.368C154.867 69.264 154.275 70.272 153.827 71.392C153.411 72.48 153.203 73.584 153.203 74.704V86.56C153.203 86.944 153.059 87.28 152.771 87.568C152.483 87.856 152.147 88 151.763 88ZM190.848 75.4C190.848 77.296 190.548 79.036 189.948 80.62C189.372 82.18 188.544 83.548 187.464 84.724C186.384 85.876 185.1 86.776 183.612 87.424C182.148 88.048 180.54 88.36 178.788 88.36C177.036 88.36 175.416 88.048 173.928 87.424C172.464 86.776 171.192 85.876 170.112 84.724C169.032 83.548 168.192 82.18 167.592 80.62C167.016 79.036 166.728 77.296 166.728 75.4C166.728 73.504 167.016 71.776 167.592 70.216C168.192 68.632 169.032 67.264 170.112 66.112C171.192 64.936 172.464 64.036 173.928 63.412C175.416 62.764 177.036 62.44 178.788 62.44C180.54 62.44 182.148 62.764 183.612 63.412C185.1 64.036 186.384 64.936 187.464 66.112C188.544 67.264 189.372 68.632 189.948 70.216C190.548 71.776 190.848 73.504 190.848 75.4ZM188.544 75.4C188.544 73.264 188.124 71.392 187.284 69.784C186.468 68.152 185.328 66.88 183.864 65.968C182.4 65.056 180.708 64.6 178.788 64.6C176.892 64.6 175.2 65.056 173.712 65.968C172.248 66.88 171.096 68.152 170.256 69.784C169.44 71.392 169.032 73.264 169.032 75.4C169.032 77.536 169.44 79.42 170.256 81.052C171.096 82.66 172.248 83.92 173.712 84.832C175.2 85.744 176.892 86.2 178.788 86.2C180.708 86.2 182.4 85.744 183.864 84.832C185.328 83.92 186.468 82.66 187.284 81.052C188.124 79.42 188.544 77.536 188.544 75.4ZM181.884 60.1C181.428 60.1 181.068 59.98 180.804 59.74C180.54 59.476 180.408 59.116 180.408 58.66V58.3C180.408 57.844 180.54 57.496 180.804 57.256C181.092 56.992 181.464 56.86 181.92 56.86C182.376 56.86 182.736 56.992 183 57.256C183.264 57.496 183.396 57.844 183.396 58.3V58.66C183.396 59.14 183.264 59.5 183 59.74C182.736 59.98 182.364 60.1 181.884 60.1ZM175.692 60.1C175.236 60.1 174.876 59.98 174.612 59.74C174.348 59.476 174.216 59.116 174.216 58.66V58.3C174.216 57.844 174.348 57.496 174.612 57.256C174.9 56.992 175.272 56.86 175.728 56.86C176.184 56.86 176.544 56.992 176.808 57.256C177.072 57.496 177.204 57.844 177.204 58.3V58.66C177.204 59.14 177.072 59.5 176.808 59.74C176.544 59.98 176.172 60.1 175.692 60.1ZM207.395 63.28C209.379 63.28 211.075 63.808 212.483 64.864C213.891 65.888 214.851 67.424 215.363 69.472L214.691 69.664L214.979 68.8C215.395 67.84 216.083 66.944 217.043 66.112C218.035 65.248 219.155 64.56 220.403 64.048C221.651 63.536 222.915 63.28 224.195 63.28C226.211 63.28 227.827 63.712 229.043 64.576C230.291 65.44 231.187 66.608 231.731 68.08C232.307 69.52 232.595 71.152 232.595 72.976V86.56C232.595 86.944 232.451 87.28 232.163 87.568C231.907 87.856 231.571 88 231.155 88C230.739 88 230.387 87.856 230.099 87.568C229.843 87.28 229.715 86.944 229.715 86.56V73.12C229.715 71.808 229.507 70.608 229.091 69.52C228.675 68.432 228.019 67.568 227.123 66.928C226.227 66.288 225.027 65.968 223.523 65.968C222.211 65.968 220.947 66.288 219.731 66.928C218.547 67.568 217.571 68.432 216.802 69.52C216.067 70.608 215.699 71.808 215.699 73.12V86.56C215.699 86.944 215.555 87.28 215.267 87.568C215.011 87.856 214.675 88 214.259 88C213.843 88 213.491 87.856 213.203 87.568C212.947 87.28 212.819 86.944 212.819 86.56V72.976C212.819 71.664 212.627 70.48 212.243 69.424C211.859 68.368 211.235 67.536 210.371 66.928C209.507 66.288 208.339 65.968 206.867 65.968C205.555 65.968 204.307 66.288 203.123 66.928C201.971 67.536 201.027 68.368 200.291 69.424C199.587 70.48 199.235 71.664 199.235 72.976V86.56C199.235 86.944 199.091 87.28 198.803 87.568C198.515 87.856 198.179 88 197.795 88C197.347 88 196.995 87.856 196.739 87.568C196.483 87.28 196.355 86.944 196.355 86.56V65.056C196.355 64.672 196.483 64.336 196.739 64.048C197.027 63.76 197.379 63.616 197.795 63.616C198.211 63.616 198.547 63.76 198.803 64.048C199.091 64.336 199.235 64.672 199.235 65.056V69.52L197.939 71.296C198.035 70.336 198.339 69.376 198.851 68.416C199.395 67.456 200.099 66.592 200.963 65.824C201.827 65.056 202.803 64.448 203.891 64C205.011 63.52 206.179 63.28 207.395 63.28Z" fill="white"/>
<path d="M112.36 29.896C114.472 29.896 116.152 30.328 117.4 31.192C118.68 32.024 119.592 33.176 120.136 34.648C120.712 36.088 121 37.688 121 39.448V53.56C121 53.944 120.856 54.28 120.568 54.568C120.28 54.856 119.944 55 119.56 55C119.112 55 118.76 54.856 118.504 54.568C118.248 54.28 118.12 53.944 118.12 53.56V39.592C118.12 38.312 117.912 37.144 117.496 36.088C117.08 35.032 116.392 34.184 115.432 33.544C114.504 32.904 113.272 32.584 111.736 32.584C110.36 32.584 109.048 32.904 107.8 33.544C106.584 34.184 105.592 35.032 104.824 36.088C104.056 37.144 103.672 38.312 103.672 39.592V53.56C103.672 53.944 103.528 54.28 103.24 54.568C102.952 54.856 102.616 55 102.232 55C101.784 55 101.432 54.856 101.176 54.568C100.92 54.28 100.792 53.944 100.792 53.56V32.056C100.792 31.672 100.92 31.336 101.176 31.048C101.464 30.76 101.816 30.616 102.232 30.616C102.648 30.616 102.984 30.76 103.24 31.048C103.528 31.336 103.672 31.672 103.672 32.056V36.088L102.568 37.816C102.632 36.792 102.952 35.816 103.528 34.888C104.136 33.928 104.904 33.08 105.832 32.344C106.76 31.576 107.784 30.984 108.904 30.568C110.056 30.12 111.208 29.896 112.36 29.896ZM146.878 30.616C147.294 30.616 147.63 30.76 147.886 31.048C148.174 31.336 148.318 31.672 148.318 32.056V45.592C148.318 48.76 147.422 51.176 145.63 52.84C143.838 54.504 141.422 55.336 138.382 55.336C135.374 55.336 132.974 54.504 131.182 52.84C129.422 51.176 128.542 48.76 128.542 45.592V32.056C128.542 31.672 128.67 31.336 128.926 31.048C129.214 30.76 129.566 30.616 129.982 30.616C130.398 30.616 130.734 30.76 130.99 31.048C131.278 31.336 131.422 31.672 131.422 32.056V45.592C131.422 47.896 132.03 49.656 133.246 50.872C134.494 52.056 136.206 52.648 138.382 52.648C140.59 52.648 142.318 52.056 143.566 50.872C144.814 49.656 145.438 47.896 145.438 45.592V32.056C145.438 31.672 145.566 31.336 145.822 31.048C146.078 30.76 146.43 30.616 146.878 30.616ZM154.478 51.112C154.222 50.728 154.094 50.36 154.094 50.008C154.126 49.624 154.334 49.32 154.718 49.096C154.974 48.872 155.262 48.776 155.582 48.808C155.934 48.84 156.254 49 156.542 49.288C157.406 50.408 158.446 51.32 159.662 52.024C160.91 52.696 162.382 53.032 164.078 53.032C164.974 53.032 165.854 52.888 166.718 52.6C167.614 52.28 168.35 51.816 168.926 51.208C169.502 50.568 169.79 49.768 169.79 48.808C169.79 47.816 169.502 47.016 168.926 46.408C168.35 45.8 167.598 45.32 166.67 44.968C165.774 44.616 164.814 44.312 163.79 44.056C162.702 43.768 161.646 43.448 160.622 43.096C159.598 42.712 158.686 42.248 157.886 41.704C157.118 41.128 156.494 40.44 156.014 39.64C155.534 38.84 155.294 37.864 155.294 36.712C155.294 35.368 155.662 34.184 156.398 33.16C157.134 32.136 158.126 31.336 159.374 30.76C160.654 30.184 162.094 29.896 163.694 29.896C164.494 29.896 165.358 30.008 166.286 30.232C167.214 30.424 168.126 30.76 169.022 31.24C169.918 31.72 170.718 32.376 171.422 33.208C171.71 33.496 171.854 33.832 171.854 34.216C171.854 34.568 171.694 34.888 171.374 35.176C171.118 35.368 170.814 35.464 170.462 35.464C170.142 35.464 169.87 35.336 169.646 35.08C168.878 34.216 167.966 33.56 166.91 33.112C165.854 32.664 164.718 32.44 163.502 32.44C162.574 32.44 161.694 32.6 160.862 32.92C160.062 33.208 159.39 33.656 158.846 34.264C158.302 34.872 158.03 35.672 158.03 36.664C158.094 37.592 158.414 38.344 158.99 38.92C159.598 39.496 160.382 39.976 161.342 40.36C162.334 40.744 163.438 41.096 164.654 41.416C165.678 41.672 166.654 41.976 167.582 42.328C168.542 42.68 169.374 43.128 170.078 43.672C170.814 44.184 171.39 44.84 171.806 45.64C172.254 46.44 172.478 47.448 172.478 48.664C172.478 50.072 172.078 51.288 171.278 52.312C170.51 53.336 169.47 54.12 168.158 54.664C166.846 55.208 165.39 55.48 163.79 55.48C162.062 55.48 160.382 55.144 158.75 54.472C157.15 53.8 155.726 52.68 154.478 51.112Z" fill="white"/>
<path d="M103.736 116.512C103.704 116.928 103.528 117.28 103.208 117.568C102.92 117.856 102.584 118 102.2 118C101.752 118 101.384 117.856 101.096 117.568C100.84 117.28 100.712 116.928 100.712 116.512V85.888C100.712 85.472 100.856 85.12 101.144 84.832C101.432 84.544 101.8 84.4 102.248 84.4C102.632 84.4 102.968 84.544 103.256 84.832C103.576 85.12 103.736 85.472 103.736 85.888V116.512Z" fill="white"/>
</svg>
