<svg width="75" height="75" viewBox="0 0 75 75" fill="none" xmlns="http://www.w3.org/2000/svg">
<path d="M74.9682 0.104126H0.176758V74.8958H74.9682V0.104126Z" fill="#4FC7EC"/>
<path d="M71.6771 3.39539H3.46729V71.6052H71.6771V3.39539Z" fill="#242238"/>
<path d="M18.3673 18.1716C18.3673 17.9137 18.4116 17.8114 18.6326 17.8114C20.3143 17.7595 23.6342 17.7084 26.9976 17.7084C35.6717 17.7084 38.9803 22.7553 39.0246 28.7247C39.0246 36.9056 32.9274 40.0075 26.4221 40.0075C25.183 40.0075 23.9881 40.0075 23.6778 40.0075V51.6963C23.6778 52.0051 23.5898 52.1083 23.3682 52.1083H18.6769C18.4558 52.1083 18.3672 52.0052 18.3672 51.7481V18.1716H18.3673ZM23.678 35.0167C24.0325 35.0679 24.696 35.1191 26.5552 35.1191C30.0509 35.1191 33.4145 34.1228 33.4145 28.9771C33.4145 24.8606 31.1578 22.7463 26.9978 22.7463C25.2717 22.7463 24.0325 22.7975 23.678 22.8494V35.0167V35.0167Z" fill="#4FC7EC"/>
<path d="M50.071 31.1705C47.9398 31.1705 47.375 32.5034 47.375 33.481C47.375 34.7163 47.9398 35.3849 51.2016 36.9288C55.6807 39.0899 57.5942 40.9941 57.5942 44.6984C57.5942 49.8442 54.2457 52.7719 49.4618 52.7719C47.1572 52.7719 44.2492 52.5521 42.4227 51.2144C42.2486 51.1113 42.1616 50.9572 42.1616 50.6994V45.9656C42.1616 45.7084 42.3358 45.6054 42.4663 45.7084C44.7274 47.4064 47.2493 47.8889 49.5104 47.8889C51.5111 47.8889 52.2066 46.5555 52.2066 45.4238C52.2066 44.0859 51.7234 43.3138 48.5921 41.8217C44.1131 39.6605 42.2485 37.8033 42.2485 34.0472C42.2485 29.879 45.374 26.4362 50.5055 26.4362C53.1579 26.4362 55.0276 26.5072 56.2457 27.33C56.4627 27.536 56.5065 27.6902 56.5065 27.9991V32.2185C56.5065 32.5268 56.3325 32.6818 56.1151 32.5268C54.5497 31.4982 52.3322 31.1705 50.071 31.1705Z" fill="#4FC7EC"/>
</svg>
