<svg width="128" height="128" viewBox="0 0 128 128" fill="none" xmlns="http://www.w3.org/2000/svg">
<path d="M35.5649 0.294376C34.7522 0.314344 33.8768 0.552034 32.8842 1.17215C30.4529 0.4297 28.095 0.171765 25.986 1.68327C22.7312 1.34891 21.6721 2.03895 20.8702 2.84438C20.1555 2.83267 15.5214 2.26267 13.3965 4.77215C8.05605 4.27199 6.36844 7.25889 8.2807 10.0444C7.19003 11.3811 6.0599 12.7017 8.61053 15.2499C7.70824 16.6692 8.26752 18.2089 10.393 20.0722C9.83206 22.0673 10.9346 23.475 12.9123 24.5722C12.5424 27.3024 16.0749 28.8899 17.1298 29.4555C17.5349 31.0464 18.379 32.5475 22.414 33.3777C23.0795 35.7486 25.5045 36.158 27.8526 36.6555C20.0914 40.227 13.4356 44.9262 13.4807 56.4555L12.3439 58.061C3.4443 62.3459 -4.56231 76.1173 7.95789 87.311C8.77572 90.8148 10.1473 93.3313 11.3684 96.1166C13.195 107.34 25.1155 112.595 28.2596 113.217C32.8669 115.995 37.7739 118.631 44.414 120.478C50.6737 125.589 57.4552 127.537 64.2737 127.533C64.3736 127.533 64.4755 127.534 64.5754 127.533C71.3939 127.537 78.1754 125.589 84.4351 120.478C91.0752 118.631 95.9823 115.995 100.589 113.217C103.734 112.595 115.654 107.34 117.481 96.1166C118.702 93.3313 120.073 90.8148 120.891 87.311C133.411 76.1173 125.405 62.3459 116.505 58.061L115.368 56.4555C115.413 44.9262 108.758 40.227 100.996 36.6555C103.345 36.158 105.77 35.7486 106.435 33.3777C110.47 32.5475 111.314 31.0464 111.719 29.4555C112.774 28.8899 116.307 27.3024 115.937 24.5722C117.914 23.475 119.017 22.0673 118.456 20.0722C120.582 18.2089 121.141 16.6692 120.239 15.2499C122.789 12.7017 121.659 11.3811 120.568 10.0444C122.481 7.25889 120.793 4.27199 115.453 4.77215C113.328 2.26267 108.694 2.83267 107.979 2.84438C107.177 2.03895 106.118 1.34891 102.863 1.68327C100.754 0.171765 98.3962 0.429701 95.9649 1.17215C93.0772 -0.631831 91.1655 0.814235 88.9825 1.36104C85.4852 0.456549 84.6859 1.69543 82.9684 2.19993C79.1564 1.56205 77.9976 2.95078 76.1684 4.4166L74.0421 4.38326C68.291 7.06649 65.4338 12.53 64.4211 15.3388C63.4078 12.5296 60.5571 7.06601 54.807 4.38326L52.6807 4.4166C50.8515 2.95078 49.6927 1.56205 45.8807 2.19993C44.1632 1.69543 43.364 0.456549 39.8667 1.36104C38.434 1.0022 37.1165 0.256256 35.5649 0.294376Z" fill="black"/>
<path d="M24.1161 12.0988C39.3745 18.3266 48.2445 23.3644 53.104 27.6551C50.6154 35.5516 37.6326 35.912 32.8855 35.6905C33.8575 35.3323 34.6685 34.9033 34.9561 34.2441C33.7649 33.5739 29.5413 34.1735 26.5926 32.862C27.7253 32.6763 28.2552 32.4953 28.785 31.8335C25.9991 31.1301 22.9984 30.5239 21.2335 29.3586C22.1859 29.368 23.0752 29.5273 24.3191 28.8444C21.8238 27.7798 19.1611 26.9362 17.0924 25.3088C18.3825 25.2838 19.7735 25.2987 20.1779 24.9231C17.894 23.803 15.9671 22.5573 14.3722 21.1948C16.1777 21.3673 16.9401 21.2187 17.3766 20.9698C15.6502 19.5699 13.4652 18.3879 12.4234 16.6629C13.764 17.0286 14.9904 17.1686 15.8744 16.6307C15.2877 15.583 12.7742 14.965 11.3272 12.5166C12.7385 12.625 14.2352 12.7604 14.5346 12.5166C13.8784 10.4031 12.7544 9.21529 11.652 7.98472C14.6724 7.94921 19.2484 7.99403 19.0411 7.79187L17.1736 6.28124C20.1238 5.65239 23.1425 6.38224 25.334 6.92406C26.318 6.30936 25.3166 5.53206 24.1161 4.73846C26.6233 5.00346 28.8888 5.45977 30.9368 6.08839C32.0309 5.30628 30.2263 4.52418 29.3534 3.74208C33.2269 4.32387 34.868 5.14131 36.4989 5.95982C37.6822 5.0619 36.5666 4.29879 35.7681 3.51709C38.6887 4.37345 40.193 5.47897 41.7768 6.57051C42.3138 5.99681 43.141 5.5763 42.1422 4.19206C44.2158 5.13832 45.7777 6.2534 46.9329 7.5026C48.2159 6.85586 47.6973 5.9714 47.7043 5.15629C49.8594 6.54412 51.227 8.021 52.901 9.46322C53.2383 9.26883 53.5335 8.60958 53.7942 7.56688C58.9357 11.5157 66.2003 21.4617 55.6618 25.4053C46.6976 19.548 35.9866 15.2919 24.1161 12.0988Z" fill="#75A928"/>
<path d="M105.078 12.0988C89.8194 18.3266 80.9494 23.3644 76.0899 27.6551C78.5785 35.5516 91.5613 35.912 96.3084 35.6905C95.3364 35.3323 94.5254 34.9033 94.2378 34.2441C95.429 33.5739 99.6526 34.1735 102.601 32.862C101.469 32.6763 100.939 32.4953 100.409 31.8335C103.195 31.1301 106.196 30.5239 107.96 29.3586C107.008 29.368 106.119 29.5273 104.875 28.8444C107.37 27.7798 110.033 26.9362 112.102 25.3088C110.811 25.2838 109.42 25.2987 109.016 24.9231C111.3 23.803 113.227 22.5573 114.822 21.1948C113.016 21.3673 112.254 21.2187 111.817 20.9698C113.544 19.5699 115.729 18.3879 116.771 16.6629C115.43 17.0286 114.203 17.1686 113.32 16.6307C113.906 15.583 116.42 14.965 117.867 12.5166C116.455 12.625 114.959 12.7604 114.659 12.5166C115.316 10.4031 116.44 9.21529 117.542 7.98472C114.522 7.94921 109.945 7.99403 110.153 7.79187L112.02 6.28124C109.07 5.65239 106.051 6.38224 103.86 6.92406C102.876 6.30936 103.877 5.53206 105.078 4.73846C102.571 5.00346 100.305 5.45977 98.2572 6.08839C97.163 5.30628 98.9676 4.52418 99.8405 3.74208C95.967 4.32387 94.3259 5.14131 92.695 5.95982C91.5117 5.0619 92.6273 4.29879 93.4258 3.51709C90.5053 4.37345 89.0009 5.47897 87.4171 6.57051C86.8801 5.99681 86.0529 5.5763 87.0517 4.19206C84.9781 5.13832 83.4162 6.2534 82.261 7.5026C80.978 6.85586 81.4966 5.9714 81.4896 5.15629C79.3346 6.54412 77.9669 8.021 76.2929 9.46322C75.9556 9.26883 75.6604 8.60958 75.3997 7.56688C70.2583 11.5157 62.9936 21.4617 73.5321 25.4053C82.4963 19.548 93.2073 15.2919 105.078 12.0988V12.0988Z" fill="#75A928"/>
<path d="M83.0757 92.5087C83.0757 96.0473 81.15 99.4411 77.7224 101.943C74.2948 104.445 69.646 105.851 64.7986 105.851C59.9512 105.851 55.3024 104.445 51.8747 101.943C48.4471 99.4411 46.5215 96.0473 46.5215 92.5087C46.5215 88.97 48.4471 85.5763 51.8747 83.0741C55.3024 80.5719 59.9512 79.1661 64.7986 79.1661C69.646 79.1661 74.2948 80.5719 77.7224 83.0741C81.15 85.5763 83.0757 88.97 83.0757 92.5087V92.5087Z" fill="#BC1142"/>
<path d="M54.2213 54.3933C57.858 56.2796 60.2223 59.4345 60.7942 63.1639C61.366 66.8934 60.0985 70.8919 57.2705 74.2799C54.4425 77.6679 50.2856 80.1678 45.7144 81.2297C41.1431 82.2915 36.5319 81.8284 32.8951 79.9421C29.2584 78.0559 26.8941 74.901 26.3222 71.1715C25.7504 67.4421 27.0179 63.4435 29.8459 60.0555C32.6739 56.6676 36.8308 54.1677 41.4021 53.1058C45.9733 52.0439 50.5845 52.507 54.2213 54.3933V54.3933Z" fill="#BC1142"/>
<path d="M74.6636 53.6822C71.0269 55.5685 68.6625 58.7234 68.0906 62.4529C67.5188 66.1823 68.7863 70.1809 71.6143 73.5688C74.4423 76.9568 78.5992 79.4567 83.1705 80.5186C87.7418 81.5805 92.353 81.1173 95.9897 79.2311C99.6264 77.3448 101.991 74.1899 102.563 70.4605C103.134 66.731 101.867 62.7325 99.0389 59.3445C96.2109 55.9565 92.054 53.4566 87.4828 52.3947C82.9115 51.3328 78.3003 51.796 74.6636 53.6822V53.6822Z" fill="#BC1142"/>
<path d="M16.3728 60.8156C24.5501 59.081 19.1331 87.5954 12.4804 85.2557C5.16269 80.5957 2.80563 66.949 16.3728 60.8156Z" fill="#BC1142"/>
<path d="M110.861 60.4601C102.684 58.7256 108.101 87.24 114.753 84.9003C122.071 80.2402 124.428 66.5935 110.861 60.4601Z" fill="#BC1142"/>
<path d="M83.0813 39.2273C97.1916 37.341 108.932 43.9779 108.459 56.0909C107.995 60.7346 77.8833 39.9186 83.0813 39.2273V39.2273Z" fill="#BC1142"/>
<path d="M44.0948 38.8718C29.9845 36.9855 18.2442 43.6224 18.7168 55.7354C19.181 60.3792 49.2928 39.5631 44.0948 38.8718Z" fill="#BC1142"/>
<path d="M64.3636 36.0456C55.942 35.8721 47.8594 40.9939 47.8401 43.9646C47.8166 47.5742 54.4986 51.2699 64.4211 51.3637C74.5539 51.4212 81.0196 48.4054 81.0523 44.6803C81.0893 40.4599 71.8366 35.9804 64.3636 36.0456V36.0456Z" fill="#BC1142"/>
<path d="M64.8779 110.065C72.2205 109.812 82.0727 111.938 82.092 114.758C82.2139 117.497 73.1568 123.684 64.3907 123.565C55.3123 123.875 46.4103 117.677 46.527 115.529C46.3911 112.38 57.5812 109.921 64.8779 110.065Z" fill="#BC1142"/>
<path d="M37.7575 93.3517C42.9851 98.3377 45.368 107.097 41.0054 109.679C36.8782 111.651 26.8553 110.839 19.7313 102.737C14.9268 95.9385 15.546 89.0202 18.9193 86.9878C23.964 84.555 31.7583 87.8409 37.7575 93.3517Z" fill="#BC1142"/>
<path d="M90.9521 91.771C85.2961 97.0158 82.1465 106.582 86.2727 109.663C90.2178 112.057 100.808 111.722 108.631 103.129C114.312 97.3572 112.408 87.7185 109.164 85.1598C104.344 82.2083 97.4243 85.9856 90.9521 91.771V91.771Z" fill="#BC1142"/>
</svg>
