<svg width="57" height="53" viewBox="0 0 57 53" fill="none" xmlns="http://www.w3.org/2000/svg">
<path d="M7.125 46.375L11.0437 37.9833C8.0457 34.0261 6.70383 29.1876 7.26998 24.3758C7.83613 19.564 10.2714 15.1097 14.1187 11.8489C17.966 8.58798 22.9609 6.74471 28.166 6.66496C33.3712 6.58521 38.4287 8.27446 42.3894 11.4157C46.3502 14.5569 48.942 18.9342 49.6783 23.726C50.4146 28.5179 49.2449 33.3949 46.3887 37.4418C43.5325 41.4887 39.1862 44.4273 34.1653 45.7061C29.1444 46.9849 23.7942 46.5161 19.1187 44.3875L7.125 46.375" stroke="white" stroke-width="2" stroke-linecap="round" stroke-linejoin="round"/>
<path d="M21.375 22.0833C21.375 22.3762 21.5001 22.657 21.7228 22.8641C21.9455 23.0712 22.2476 23.1875 22.5625 23.1875C22.8774 23.1875 23.1795 23.0712 23.4022 22.8641C23.6249 22.657 23.75 22.3762 23.75 22.0833V19.875C23.75 19.5822 23.6249 19.3013 23.4022 19.0942C23.1795 18.8872 22.8774 18.7708 22.5625 18.7708C22.2476 18.7708 21.9455 18.8872 21.7228 19.0942C21.5001 19.3013 21.375 19.5822 21.375 19.875V22.0833ZM21.375 22.0833C21.375 25.0118 22.6261 27.8203 24.8531 29.891C27.0801 31.9617 30.1006 33.125 33.25 33.125H35.625C35.9399 33.125 36.242 33.0087 36.4647 32.8016C36.6874 32.5945 36.8125 32.3137 36.8125 32.0208C36.8125 31.728 36.6874 31.4472 36.4647 31.2401C36.242 31.033 35.9399 30.9167 35.625 30.9167H33.25C32.9351 30.9167 32.633 31.033 32.4103 31.2401C32.1876 31.4472 32.0625 31.728 32.0625 32.0208C32.0625 32.3137 32.1876 32.5945 32.4103 32.8016C32.633 33.0087 32.9351 33.125 33.25 33.125" stroke="white" stroke-width="2" stroke-linecap="round" stroke-linejoin="round"/>
</svg>
