<svg width="41" height="50" viewBox="0 0 41 50" fill="none" xmlns="http://www.w3.org/2000/svg">
<path d="M0 44.5401H1.56604C2.27962 44.5401 2.79787 44.6489 3.12003 44.8664C3.44257 45.0839 3.60366 45.4294 3.60366 45.9035C3.60366 46.2253 3.5329 46.4891 3.39176 46.6953C3.25063 46.9015 3.06282 47.0256 2.82873 47.0675V47.1041C3.14788 47.1802 3.37784 47.3228 3.51897 47.5315C3.66011 47.7401 3.73087 48.0176 3.73087 48.364C3.73087 48.8553 3.56527 49.2384 3.23332 49.5135C2.90174 49.7885 2.45124 49.9259 1.88218 49.9259H0V44.5401V44.5401ZM1.06698 46.6732H1.68647C1.97552 46.6732 2.18515 46.6252 2.31462 46.5298C2.44446 46.4339 2.5092 46.2756 2.5092 46.0545C2.5092 45.8483 2.43882 45.7005 2.29768 45.6107C2.15655 45.5209 1.93337 45.4762 1.62814 45.4762H1.06698V46.6732V46.6732ZM1.06698 47.5794V48.983H1.7625C2.05606 48.983 2.27284 48.923 2.41323 48.8026C2.55361 48.6822 2.62323 48.4981 2.62323 48.25C2.62323 47.8033 2.32478 47.5794 1.72825 47.5794H1.06698V47.5794ZM9.30402 47.2258C9.30402 48.1171 9.09739 48.8026 8.68453 49.2815C8.27166 49.7604 7.67964 50 6.90848 50C6.13732 50 5.5453 49.7604 5.13243 49.2815C4.71919 48.8026 4.51294 48.1151 4.51294 47.2185C4.51294 46.322 4.71994 45.6377 5.13431 45.1648C5.54869 44.692 6.14221 44.4555 6.91563 44.4555C7.68905 44.4555 8.28031 44.694 8.69017 45.17C9.09928 45.6465 9.30402 46.332 9.30402 47.2258V47.2258ZM5.63149 47.2258C5.63149 47.8275 5.738 48.2806 5.95177 48.5851C6.16517 48.8896 6.48394 49.0418 6.90848 49.0418C7.75981 49.0418 8.18547 48.4365 8.18547 47.2258C8.18547 46.0126 7.76207 45.4061 6.91525 45.4061C6.49072 45.4061 6.17044 45.5587 5.95478 45.8648C5.73913 46.1709 5.63149 46.624 5.63149 47.2258V47.2258ZM14.9152 47.2258C14.9152 48.1171 14.7086 48.8026 14.2957 49.2815C13.8828 49.7604 13.2908 50 12.5196 50C11.7485 50 11.1565 49.7604 10.7436 49.2815C10.3304 48.8026 10.1241 48.1151 10.1241 47.2185C10.1241 46.322 10.3311 45.6377 10.7455 45.1648C11.1599 44.692 11.7534 44.4555 12.5268 44.4555C13.3002 44.4555 13.8915 44.694 14.3013 45.17C14.7101 45.6465 14.9152 46.332 14.9152 47.2258ZM11.2423 47.2258C11.2423 47.8275 11.3488 48.2806 11.5626 48.5851C11.776 48.8896 12.0947 49.0418 12.5193 49.0418C13.3706 49.0418 13.7963 48.4365 13.7963 47.2258C13.7963 46.0126 13.3729 45.4061 12.526 45.4061C12.1015 45.4061 11.7812 45.5587 11.5656 45.8648C11.3499 46.1709 11.2423 46.624 11.2423 47.2258ZM17.8993 49.9259H16.8324V45.4906H15.4658V44.5401H19.2659V45.4906H17.8993V49.9259ZM23.0107 48.4304C23.0107 48.917 22.8474 49.3 22.5203 49.5799C22.1932 49.8598 21.7382 50 21.1556 50C20.6186 50 20.1436 49.8917 19.7307 49.6758V48.6149C20.0702 48.7768 20.3577 48.8912 20.593 48.9576C20.8282 49.0241 21.0431 49.0571 21.2384 49.0571C21.4725 49.0571 21.652 49.0092 21.777 48.9137C21.9023 48.8179 21.9648 48.6757 21.9648 48.4864C21.9648 48.3809 21.9373 48.287 21.8824 48.2045C21.8274 48.1223 21.7465 48.043 21.6396 47.9668C21.5327 47.8907 21.3156 47.7691 20.9874 47.6023C20.6799 47.4477 20.4492 47.2991 20.2956 47.1565C20.1417 47.0139 20.019 46.8484 19.9272 46.6595C19.8353 46.4702 19.7894 46.2491 19.7894 45.9965C19.7894 45.5201 19.9403 45.1455 20.2422 44.8728C20.544 44.6001 20.961 44.464 21.4936 44.464C21.7552 44.464 22.0047 44.497 22.2422 44.5635C22.4797 44.6299 22.7281 44.723 22.9874 44.8434L22.643 45.7311C22.3747 45.6135 22.1526 45.5309 21.9768 45.4842C21.8011 45.4375 21.6287 45.4141 21.459 45.4141C21.2569 45.4141 21.1022 45.4645 20.9942 45.5652C20.8861 45.6659 20.8323 45.7972 20.8323 45.9595C20.8323 46.0602 20.8542 46.148 20.8978 46.2229C20.9415 46.2978 21.0107 46.3703 21.1059 46.4404C21.2012 46.5104 21.4266 46.6361 21.7823 46.8182C22.2527 47.059 22.5753 47.3003 22.7495 47.5419C22.9238 47.7836 23.0107 48.0792 23.0107 48.4304V48.4304ZM25.8646 49.9259H24.7977V45.4906H23.4311V44.5401H27.2312V45.4906H25.8646V49.9259ZM29.0727 47.8593V49.9259H28.0058V44.5401H29.4721C30.1559 44.5401 30.6617 44.6734 30.9899 44.9397C31.3181 45.2063 31.4822 45.6111 31.4822 46.1536C31.4822 46.4706 31.4009 46.7521 31.238 46.999C31.075 47.2459 30.8443 47.4392 30.5462 47.579C31.3034 48.7897 31.7968 49.5719 32.0264 49.9255H30.8424L29.6411 47.8589H29.0727V47.8593ZM29.0727 46.9309H29.4171C29.7543 46.9309 30.0035 46.8709 30.1642 46.7505C30.3249 46.6301 30.4051 46.4408 30.4051 46.183C30.4051 45.9276 30.323 45.746 30.1589 45.6377C29.9948 45.5297 29.7408 45.4757 29.3964 45.4757H29.0727V46.9309V46.9309ZM35.7404 49.9259L35.3753 48.6439H33.5405L33.1755 49.9259H32.0257L33.8017 44.5184H35.1062L36.8894 49.9259H35.7404V49.9259ZM35.1205 47.6861C34.7833 46.5245 34.5932 45.8676 34.5507 45.7154C34.5082 45.5631 34.478 45.4427 34.4596 45.3545C34.384 45.6687 34.1672 46.446 33.8089 47.6861H35.1205ZM41 46.2201C41 46.7996 40.8306 47.2431 40.4923 47.5496C40.1539 47.8569 39.6726 48.0103 39.0482 48.0103H38.5905V49.9259H37.5236V44.5401H39.131C39.7414 44.5401 40.2055 44.6807 40.5235 44.9618C40.8412 45.2434 41 45.6626 41 46.2201V46.2201ZM38.5905 47.0747H38.9417C39.2699 47.0747 39.5153 47.0054 39.6782 46.8665C39.8412 46.7275 39.9225 46.5258 39.9225 46.2607C39.9225 45.9929 39.854 45.7951 39.7177 45.6675C39.5811 45.5398 39.367 45.4757 39.0757 45.4757H38.5902V47.0747H38.5905ZM24.2452 22.055C23.4988 21.792 22.4243 21.7493 21.0216 21.7493H15.9837V29.8046H21.4123C22.354 29.8046 23.0152 29.7043 23.3961 29.6286C24.0671 29.5005 24.6283 29.254 25.0792 28.9535C25.5301 28.6539 25.9008 28.2008 26.1913 27.6272C26.4815 27.0537 26.6272 26.3839 26.6272 25.6331C26.6272 24.7535 26.4168 24.0301 25.996 23.3817C25.5756 22.7328 24.9919 22.3176 24.2452 22.055ZM23.4714 18.5864C24.2128 18.3504 24.7717 17.9234 25.1469 17.3769C25.5229 16.8303 25.7107 16.1271 25.7107 15.301C25.7107 14.5185 25.5353 13.8209 25.1846 13.2252C24.8338 12.6299 24.3329 12.2259 23.6821 12.006C23.0303 11.7869 21.9132 11.6802 20.3303 11.6802H15.9837V18.9299H20.6908C21.9836 18.9299 22.9102 18.7692 23.4714 18.5864V18.5864ZM40.4471 5.68945C40.4471 2.54708 38.0666 0 35.1303 0H5.86972C2.93336 0 0.552874 2.54708 0.552874 5.68945V37.0036C0.552874 40.146 2.93336 42.693 5.86972 42.693H35.1303C38.0666 42.693 40.4471 40.146 40.4471 37.0036V5.68945V5.68945ZM28.9945 28.705C28.559 29.6539 28.0201 30.3858 27.3791 30.9005C26.7378 31.4148 25.9335 31.8857 24.9666 32.1483C23.9998 32.4113 22.815 32.6239 21.4123 32.6239H12.9728V8.86082H21.2772C22.9606 8.86082 24.3103 9.11054 25.3272 9.58741C26.3445 10.0647 27.1405 10.8042 27.7175 11.7958C28.2933 12.7878 28.5816 13.8281 28.5816 14.9112C28.5816 15.9189 28.3257 16.869 27.8153 17.7591C27.3042 18.6492 26.5327 19.3681 25.5007 19.9147C26.833 20.3328 27.8579 21.0469 28.5741 22.0546C29.2903 23.0627 29.6486 24.2529 29.6486 25.6255C29.6482 26.7299 29.4307 27.7565 28.9945 28.705V28.705Z" fill="#5B4282"/>
</svg>
