<svg width="44" height="49" viewBox="0 0 44 49" fill="none" xmlns="http://www.w3.org/2000/svg">
<path d="M15.8889 44.9167C19.2622 44.9167 22 41.8678 22 38.1111V31.3055H15.8889C12.5155 31.3055 9.77777 34.3544 9.77777 38.1111C9.77777 41.8678 12.5155 44.9167 15.8889 44.9167Z" fill="#0ACF83"/>
<path d="M9.77777 24.5C9.77777 20.7433 12.5155 17.6945 15.8889 17.6945H22V31.3056H15.8889C12.5155 31.3056 9.77777 28.2567 9.77777 24.5Z" fill="#A259FF"/>
<path d="M9.77777 10.8889C9.77777 7.1322 12.5155 4.08331 15.8889 4.08331H22V17.6944H15.8889C12.5155 17.6944 9.77777 14.6455 9.77777 10.8889Z" fill="#F24E1E"/>
<path d="M22 4.08331H28.1111C31.4844 4.08331 34.2222 7.1322 34.2222 10.8889C34.2222 14.6455 31.4844 17.6944 28.1111 17.6944H22V4.08331Z" fill="#FF7262"/>
<path d="M34.2222 24.5C34.2222 28.2567 31.4844 31.3056 28.1111 31.3056C24.7378 31.3056 22 28.2567 22 24.5C22 20.7433 24.7378 17.6945 28.1111 17.6945C31.4844 17.6945 34.2222 20.7433 34.2222 24.5Z" fill="#1ABCFE"/>
</svg>
