<svg width="44" height="41" viewBox="0 0 44 41" fill="none" xmlns="http://www.w3.org/2000/svg">
<path fill-rule="evenodd" clip-rule="evenodd" d="M21.9388 0.732361C9.92479 0.732361 0.182617 9.90325 0.182617 21.2174C0.182617 30.2685 6.41644 37.9468 15.0609 40.6559C16.1478 40.8458 16.547 40.2115 16.547 39.6704C16.547 39.1819 16.5268 37.5682 16.5174 35.8565C10.4648 37.0957 9.18767 33.4396 9.18767 33.4396C8.19799 31.0718 6.77203 30.4422 6.77203 30.4422C4.79773 29.1708 6.92082 29.1972 6.92082 29.1972C9.10516 29.3414 10.2559 31.3082 10.2559 31.3082C12.1963 34.4393 15.3455 33.5342 16.587 33.0111C16.7822 31.6871 17.3461 30.7831 17.9683 30.2716C13.1359 29.7542 8.05568 27.9974 8.05568 20.1481C8.05568 17.9116 8.90593 16.0842 10.2977 14.6493C10.0714 14.1337 9.32673 12.0502 10.5081 9.22854C10.5081 9.22854 12.3347 8.67798 16.4922 11.3283C18.228 10.8741 20.0896 10.6458 21.9388 10.638C23.787 10.6458 25.6497 10.8734 27.3887 11.3277C31.5412 8.6773 33.3657 9.22786 33.3657 9.22786C34.5499 12.0492 33.8052 14.133 33.5793 14.6486C34.9743 16.0836 35.8184 17.911 35.8184 20.1475C35.8184 28.0154 30.7288 29.7475 25.8842 30.2549C26.6649 30.8906 27.3602 32.1376 27.3602 34.0485C27.3602 36.7894 27.335 38.9954 27.335 39.6701C27.335 40.2152 27.727 40.854 28.8294 40.6528C37.4688 37.9411 43.6954 30.2651 43.6954 21.2174C43.6951 9.90393 33.954 0.7327 21.9388 0.7327V0.732361Z" fill="#181616"/>
<path d="M8.42289 30.1441C8.37498 30.2458 8.20493 30.2764 8.05001 30.2068C7.89149 30.1403 7.80322 30.0016 7.85438 29.8995C7.90122 29.7943 8.07163 29.7655 8.22907 29.8357C8.38759 29.9025 8.47766 30.0426 8.42253 30.1444L8.42289 30.1441ZM9.30412 31.0698C9.20073 31.1604 8.99789 31.1183 8.86027 30.9748C8.7176 30.8324 8.69094 30.6414 8.7965 30.5494C8.90386 30.4592 9.10057 30.5019 9.24324 30.6444C9.38519 30.7889 9.41329 30.9782 9.30448 31.0701L9.30412 31.0698ZM10.1623 32.2493C10.029 32.3368 9.81067 32.2551 9.67593 32.0729C9.54263 31.8904 9.54263 31.6716 9.67953 31.5844C9.81391 31.4969 10.029 31.5759 10.1659 31.7564C10.2985 31.9413 10.2985 32.1601 10.1623 32.2489V32.2493ZM11.3372 33.3894C11.2183 33.5132 10.9639 33.48 10.778 33.3114C10.5881 33.1462 10.5352 32.9111 10.6544 32.7876C10.7755 32.6635 11.0309 32.6981 11.2179 32.8657C11.4078 33.0305 11.465 33.2659 11.3379 33.3891L11.3372 33.3894ZM12.9584 34.0512C12.9054 34.2117 12.6612 34.2846 12.4144 34.2161C12.1683 34.1459 12.0073 33.9583 12.0577 33.7961C12.1081 33.6343 12.3542 33.5587 12.6024 33.6316C12.8485 33.7015 13.0095 33.8881 12.9584 34.0512ZM14.7392 34.1737C14.7453 34.3426 14.5364 34.4824 14.2781 34.4858C14.0176 34.4916 13.8068 34.3545 13.8043 34.1883C13.8043 34.0177 14.0089 33.8796 14.2691 33.8748C14.5274 33.8704 14.7396 34.0061 14.7396 34.1734L14.7392 34.1737ZM16.3958 33.9084C16.4267 34.0729 16.247 34.2422 15.9901 34.2873C15.7379 34.3314 15.5037 34.229 15.4713 34.0658C15.4403 33.8969 15.6233 33.7276 15.8755 33.6839C16.1328 33.6421 16.3633 33.7415 16.3958 33.9088V33.9084Z" fill="#181616"/>
</svg>
