<svg width="51" height="51" viewBox="0 0 51 51" fill="none" xmlns="http://www.w3.org/2000/svg">
<path d="M35.5882 50V40.4309C35.5882 37.6969 35.8765 36.6033 34.1471 34.9629C42.2176 34.1427 50 31.1352 50 18.5587C49.9965 15.2915 48.6526 12.1538 46.2529 9.80988C47.3784 6.97187 47.2748 3.82682 45.9647 1.06101C45.9647 1.06101 42.7941 0.240801 35.8765 4.61524C30.0173 3.16781 23.865 3.16781 18.0059 4.61524C11.0882 0.240801 7.91765 1.06101 7.91765 1.06101C6.60756 3.82682 6.50395 6.97187 7.62941 9.80988C5.22972 12.1538 3.88586 15.2915 3.88235 18.5587C3.88235 31.1352 11.6647 34.1427 19.7353 34.9629C18.0059 36.6033 18.0059 38.2437 18.2941 40.4309V50M18.2941 44.532C5.9 48.3596 5.9 37.6969 1 36.3299L18.2941 44.532Z" stroke="white" stroke-width="2" stroke-linecap="round" stroke-linejoin="round"/>
</svg>
