<svg width="128" height="128" viewBox="0 0 128 128" fill="none" xmlns="http://www.w3.org/2000/svg">
<path d="M121.965 60.8934L116.119 68.5271L106.969 61.5751L106.167 60.9654V61.9732V111.5H69.8333V79.9999V79.4999H69.3333H58.6667H58.1667V79.9999V111.5H21.8333V61.9732V60.9609L21.0294 61.5762L11.8809 68.5781L6.03357 60.8944L21.6367 48.984L21.8333 48.8339V48.5866V32.4999H31.5V40.4266V41.4373L32.3034 40.824L63.9999 16.629L121.965 60.8934ZM52.8255 5.83325C52.5626 14.1779 45.7432 20.8333 37.3333 20.8333C34.2922 20.8333 31.7769 23.189 31.5214 26.1666H21.8412C22.104 17.822 28.9234 11.1666 37.3333 11.1666C40.3744 11.1666 42.8897 8.81081 43.1453 5.83325H52.8255Z" fill="white" stroke="black"/>
</svg>
