<svg width="55" height="52" viewBox="0 0 55 52" fill="none" xmlns="http://www.w3.org/2000/svg">
<path d="M11.9685 47.2688L8.51251 10.6206H46.4874L43.028 47.2631L27.4768 51.339L11.9685 47.2688Z" fill="#E44D26"/>
<path d="M27.5 48.2235L40.0658 44.9296L43.0225 13.6175H27.5V48.2235Z" fill="#F16529"/>
<path d="M27.5 27.2098H21.2089L20.7749 22.6066H27.5V18.1118H15.5792L15.6926 19.318L16.8614 31.7041H27.5V27.2098ZM27.5 38.8826L27.4789 38.8878L22.1847 37.5359L21.8462 33.9515H17.0736L17.7396 41.0089L27.4781 43.565L27.5 43.5589V38.8826Z" fill="#EBEBEB"/>
<path d="M12.0458 0.66095H14.4615V2.91807H16.6719V0.66095H19.088V7.49489H16.6719V5.20648H14.462V7.49489H12.0458V0.66095V0.66095ZM22.2647 2.92742H20.1377V0.66095H26.8086V2.92742H24.6808V7.49489H22.2647V2.92742V2.92742ZM27.8674 0.66095H30.3862L31.9361 3.06229L33.4842 0.66095H36.0043V7.49489H33.5977V4.10757L31.9361 6.53736H31.894L30.2311 4.10757V7.49489H27.8669V0.66095H27.8674ZM37.207 0.66095H39.6236V5.23614H43.0211V7.49529H37.207V0.66095V0.66095Z" fill="black"/>
<path d="M27.4836 27.2098V31.7041H33.3377L32.786 37.5334L27.4836 38.8866V43.5626L37.2298 41.0089L37.3011 40.2492L38.4183 28.4163L38.5343 27.2098H37.253H27.4836ZM27.4836 18.1118V22.6066H38.967L39.062 21.5962L39.279 19.318L39.3929 18.1118H27.4836Z" fill="white"/>
</svg>
