<svg width="128" height="128" viewBox="0 0 128 128" fill="none" xmlns="http://www.w3.org/2000/svg">
<g clip-path="url(#clip0_58_1188)">
<path d="M77.5015 33.8654L77.5698 33.8852H77.6409H83.1882L83.1975 33.8879C83.2477 33.9026 83.3225 33.9246 83.4192 33.9537C83.6127 34.0119 83.8941 34.0983 84.2435 34.2105C84.9427 34.4352 85.9131 34.763 86.9972 35.1752C89.1772 36.0042 91.7713 37.1581 93.554 38.481L94.352 39.0732V38.1708C94.3611 38.1826 94.3704 38.1944 94.3797 38.2062C95.0839 39.1032 96.2176 40.1698 97.932 40.8485L98.7094 41.1562L98.6127 40.3257L98.5812 40.0549C98.7511 40.2824 98.9348 40.5226 99.1285 40.7678C99.6114 41.3792 100.161 42.0279 100.719 42.5869C101.269 43.1382 101.857 43.6351 102.418 43.9074L103.251 44.3114L103.133 43.3933L103.001 42.3775C103.217 42.6748 103.45 42.9939 103.689 43.3177C104.174 43.976 104.687 44.6567 105.129 45.2119C105.35 45.4893 105.555 45.739 105.733 45.9404C105.902 46.1331 106.07 46.309 106.209 46.4162L106.36 46.5324L106.55 46.5187L108.604 46.3705L108.723 46.6102C108.891 46.9468 109.125 47.417 109.392 47.9512C109.925 49.0193 110.588 50.3439 111.106 51.368L111.122 51.4011L111.144 51.4311L111.144 51.4312L111.144 51.4313L111.144 51.4316L111.146 51.4348L111.156 51.4491C111.165 51.4621 111.179 51.4819 111.196 51.5075C111.23 51.5589 111.279 51.6332 111.335 51.7233C111.448 51.9055 111.586 52.1433 111.695 52.3811C111.798 52.6061 111.854 52.7854 111.867 52.9018C111.851 52.907 111.835 52.9132 111.818 52.9203C111.722 52.9607 111.557 53.0564 111.468 53.2613C111.377 53.4724 111.416 53.6842 111.486 53.8484C111.552 54.0005 111.661 54.1539 111.804 54.3134L111.817 54.3317C111.839 54.3624 111.87 54.4063 111.91 54.4617C111.991 54.5726 112.11 54.7296 112.263 54.9187C112.569 55.2964 113.016 55.8053 113.579 56.3316C114.505 57.1961 115.78 58.1391 117.293 58.5952C117.023 58.849 116.7 59.1566 116.372 59.4792C115.959 59.8851 115.533 60.32 115.193 60.7033C115.102 60.8071 115.014 60.9089 114.934 61.0068C114.893 60.9481 114.848 60.8858 114.801 60.8202C114.44 60.323 113.918 59.6364 113.268 58.8765C111.973 57.3635 110.144 55.5302 108.053 54.3352L108.045 54.3306L108.037 54.3264L108.037 54.3264L108.037 54.3263L108.036 54.3259L108.031 54.3231L108.007 54.3103C107.985 54.2986 107.953 54.2807 107.911 54.257C107.827 54.2094 107.705 54.1384 107.558 54.0469C107.263 53.8633 106.871 53.5997 106.479 53.2784C106.085 52.9555 105.703 52.585 105.418 52.1902C105.132 51.7948 104.966 51.406 104.947 51.0367C104.947 51.0352 104.947 51.0336 104.946 51.0321L104.882 48.6523L104.875 48.39L104.655 48.2469L104.382 48.6659C104.655 48.2469 104.655 48.2469 104.654 48.2468L104.654 48.2464L104.652 48.2452L104.645 48.2405L104.616 48.222L104.505 48.1502C104.408 48.0874 104.264 47.9953 104.079 47.8775C103.709 47.6419 103.173 47.3036 102.508 46.8921C101.178 46.0694 99.3329 44.9534 97.2692 43.7808C93.1599 41.4459 88.1247 38.851 84.5806 37.9345L84.5605 37.9293L84.54 37.9258L84.4554 38.4186C84.54 37.9258 84.5399 37.9258 84.5398 37.9257L84.5394 37.9257L84.5383 37.9255L84.5346 37.9249L84.5209 37.9226L84.4697 37.9142C84.4253 37.9071 84.3604 37.897 84.2773 37.8847C84.1112 37.8601 83.8718 37.8268 83.5759 37.7915C82.9847 37.7211 82.1649 37.6424 81.2514 37.61C79.4594 37.5465 77.1995 37.6551 75.6247 38.436L75.6067 38.4436C75.5842 38.4533 75.5523 38.4672 75.5116 38.4857C75.4303 38.5226 75.3138 38.5776 75.1673 38.6525C74.8742 38.8022 74.4603 39.0316 73.9656 39.355C72.9766 40.0016 71.6627 41.025 70.3467 42.5396C67.7077 45.5767 65.0845 50.5611 65.0194 58.3672H65.0193L65.0194 58.3739L65.5193 58.3713C65.0194 58.3739 65.0194 58.3742 65.0194 58.3745L65.0194 58.3755L65.0194 58.3785L65.0195 58.3891L65.0201 58.4282C65.0207 58.4619 65.0218 58.5111 65.0238 58.5747C65.0278 58.702 65.0353 58.887 65.0496 59.1222C65.0783 59.5924 65.134 60.2636 65.2424 61.0744C65.4591 62.6939 65.8874 64.8799 66.7361 67.1346C68.433 71.6422 71.8473 76.5001 78.6634 77.5344L78.6845 77.5376L78.7057 77.539L78.7384 77.04L78.7058 77.539L78.7061 77.539L78.7071 77.5391L78.7114 77.5393L78.7281 77.5404L78.7937 77.5447L79.0445 77.5612L79.954 77.6207C80.715 77.6704 81.7499 77.7379 82.8453 77.8089C85.0353 77.951 87.4698 78.1074 88.4399 78.1645L88.4475 78.165L88.4551 78.1652L88.4558 78.1652L88.4596 78.1653L88.4764 78.1659L88.5461 78.1686C88.6084 78.1713 88.702 78.1757 88.8251 78.1828C89.0712 78.1971 89.4349 78.2219 89.901 78.2642C90.8331 78.3489 92.1739 78.5036 93.8008 78.7833C97.0562 79.343 101.448 80.4019 106.003 82.3969C113.132 85.52 120.641 90.9257 124.83 100.303C124.391 99.5346 123.905 98.7426 123.368 97.9401C119.556 92.2424 113.174 85.9913 102.934 83.8656L101.047 83.474L102.505 84.7335L102.505 84.7336L102.506 84.7339L102.508 84.7356L102.517 84.7438L102.556 84.7783C102.591 84.8093 102.644 84.8565 102.713 84.9195C102.852 85.0457 103.057 85.2354 103.318 85.4871C103.841 85.9905 104.59 86.7417 105.491 87.7277C107.292 89.7002 109.696 92.6105 112.1 96.3555C115.616 101.831 119.126 109.082 120.761 117.79C119.857 114.253 118.569 110.112 116.758 105.918C111.939 94.7532 103.351 83.0725 88.3466 81.6368L88.3283 81.6351L88.3099 81.6347L88.3096 81.6346L88.3086 81.6346L88.3044 81.6345L88.288 81.6342L88.2239 81.6328L87.9786 81.6273L87.0871 81.6073C86.3404 81.5903 85.3234 81.5668 84.2418 81.5405C82.0762 81.488 79.6591 81.4249 78.631 81.382L78.6269 81.3818L78.5996 81.3801C78.5745 81.3785 78.5354 81.3756 78.4834 81.371C78.3795 81.3618 78.2237 81.3456 78.0231 81.3179C77.6218 81.2626 77.0421 81.1617 76.3394 80.9795C74.9332 80.6151 73.0415 79.9273 71.1033 78.6358C67.2481 76.0668 63.1417 71.0647 62.3782 61.2647L62.3782 61.2636L62.3775 61.2546L62.3749 61.2168C62.3727 61.1827 62.3695 61.1314 62.3658 61.0636C62.3584 60.9281 62.3489 60.727 62.3407 60.4678C62.3245 59.9494 62.3137 59.1993 62.3362 58.2778C62.3811 56.4335 62.5589 53.909 63.0891 51.1847C64.154 45.713 66.6156 39.5552 72.1415 36.3785L72.5082 36.1677L72.3612 35.7712L71.8923 35.945L72.3611 35.7711L72.361 35.7707L72.3604 35.769L72.3578 35.7622L72.3477 35.7345L72.3075 35.6249C72.2722 35.5283 72.2202 35.3854 72.1538 35.2008C72.0211 34.8315 71.8308 34.2957 71.6009 33.6307C71.1411 32.3005 70.5234 30.4544 69.8917 28.3907C69.7523 27.935 69.6123 27.4693 69.4734 26.9969C70.8114 29.9828 73.2408 32.6288 77.5015 33.8654ZM66.5959 15.8783C66.8979 15.4798 66.8976 15.4795 66.8972 15.4793L66.8961 15.4785L66.893 15.4761L66.8829 15.4686L66.8469 15.4423C66.8158 15.4198 66.7703 15.3875 66.71 15.346C66.5894 15.2629 66.4093 15.1429 66.1653 14.9906C65.6774 14.6859 64.934 14.2519 63.9 13.7252C61.832 12.6717 58.6016 11.2477 53.9271 9.74598C46.116 7.23661 34.2718 4.51023 17.0783 2.93363C20.9179 2.96263 25.5239 3.10003 30.4595 3.46385C37.1006 3.9534 44.3293 4.85224 51.0866 6.44498C57.7167 8.00774 63.8623 10.2315 68.552 13.369C68.5286 13.4788 68.5011 13.6135 68.4709 13.7709C68.3806 14.2411 68.2666 14.9145 68.1702 15.7334C67.9775 17.3686 67.8533 19.5957 68.1339 21.9471C68.1377 21.9787 68.1415 22.0102 68.1455 22.0418C67.6101 19.7852 67.209 17.6132 67.0948 15.8461L67.0801 15.6179L66.8979 15.4798L66.5959 15.8783Z" fill="white"/>
<path d="M77.5015 33.8654L77.5698 33.8852H77.6409H83.1882L83.1975 33.8879C83.2477 33.9026 83.3225 33.9246 83.4192 33.9537C83.6127 34.0119 83.8941 34.0983 84.2435 34.2105C84.9427 34.4352 85.9131 34.763 86.9972 35.1752C89.1772 36.0042 91.7713 37.1581 93.554 38.481L94.352 39.0732V38.1708C94.3611 38.1826 94.3704 38.1944 94.3797 38.2062C95.0839 39.1032 96.2176 40.1698 97.932 40.8485L98.7094 41.1562L98.6127 40.3257L98.5812 40.0549C98.7511 40.2824 98.9348 40.5226 99.1285 40.7678C99.6114 41.3792 100.161 42.0279 100.719 42.5869C101.269 43.1382 101.857 43.6351 102.418 43.9074L103.251 44.3114L103.133 43.3933L103.001 42.3775C103.217 42.6748 103.45 42.9939 103.689 43.3177C104.174 43.976 104.687 44.6567 105.129 45.2119C105.35 45.4893 105.555 45.739 105.733 45.9404C105.902 46.1331 106.07 46.309 106.209 46.4162L106.36 46.5324L106.55 46.5187L108.604 46.3705L108.723 46.6102C108.891 46.9468 109.125 47.417 109.392 47.9512C109.925 49.0193 110.588 50.3439 111.106 51.368L111.122 51.4011L111.144 51.4311L111.144 51.4312L111.144 51.4313L111.144 51.4316L111.146 51.4348L111.156 51.4491C111.165 51.4621 111.179 51.4819 111.196 51.5075C111.23 51.5589 111.279 51.6332 111.335 51.7233C111.448 51.9055 111.586 52.1433 111.695 52.3811C111.798 52.6061 111.854 52.7854 111.867 52.9018C111.851 52.907 111.835 52.9132 111.818 52.9203C111.722 52.9607 111.557 53.0564 111.468 53.2613C111.377 53.4724 111.416 53.6842 111.486 53.8484C111.552 54.0005 111.661 54.1539 111.804 54.3134L111.817 54.3317C111.839 54.3624 111.87 54.4063 111.91 54.4617C111.991 54.5726 112.11 54.7296 112.263 54.9187C112.569 55.2964 113.016 55.8053 113.579 56.3316C114.505 57.1961 115.78 58.1391 117.293 58.5952C117.023 58.849 116.7 59.1566 116.372 59.4792C115.959 59.8851 115.533 60.32 115.193 60.7033C115.102 60.8071 115.014 60.9089 114.934 61.0068C114.893 60.9481 114.848 60.8858 114.801 60.8202C114.44 60.323 113.918 59.6364 113.268 58.8765C111.973 57.3635 110.144 55.5302 108.053 54.3352L108.045 54.3306L108.037 54.3264L108.037 54.3264L108.037 54.3263L108.036 54.3259L108.031 54.3231L108.007 54.3103C107.985 54.2986 107.953 54.2807 107.911 54.257C107.827 54.2094 107.705 54.1384 107.558 54.0469C107.263 53.8633 106.871 53.5997 106.479 53.2784C106.085 52.9555 105.703 52.585 105.418 52.1902C105.132 51.7948 104.966 51.406 104.947 51.0367C104.947 51.0352 104.947 51.0336 104.946 51.0321L104.882 48.6523L104.875 48.39L104.655 48.2469L104.382 48.6659C104.655 48.2469 104.655 48.2469 104.654 48.2468L104.654 48.2464L104.652 48.2452L104.645 48.2405L104.616 48.222L104.505 48.1502C104.408 48.0874 104.264 47.9953 104.079 47.8775C103.709 47.6419 103.173 47.3036 102.508 46.8921C101.178 46.0694 99.3329 44.9534 97.2692 43.7808C93.1599 41.4459 88.1247 38.851 84.5806 37.9345L84.5605 37.9293L84.54 37.9258L84.4554 38.4186C84.54 37.9258 84.5399 37.9258 84.5398 37.9257L84.5394 37.9257L84.5383 37.9255L84.5346 37.9249L84.5209 37.9226L84.4697 37.9142C84.4253 37.9071 84.3604 37.897 84.2773 37.8847C84.1112 37.8601 83.8718 37.8268 83.5759 37.7915C82.9847 37.7211 82.1649 37.6424 81.2514 37.61C79.4594 37.5465 77.1995 37.6551 75.6247 38.436L75.6067 38.4436C75.5842 38.4533 75.5523 38.4672 75.5116 38.4857C75.4303 38.5226 75.3138 38.5776 75.1673 38.6525C74.8742 38.8022 74.4603 39.0316 73.9656 39.355C72.9766 40.0016 71.6627 41.025 70.3467 42.5396C67.7077 45.5767 65.0845 50.5611 65.0194 58.3672H65.0193L65.0194 58.3739L65.5193 58.3713C65.0194 58.3739 65.0194 58.3742 65.0194 58.3745L65.0194 58.3755L65.0194 58.3785L65.0195 58.3891L65.0201 58.4282C65.0207 58.4619 65.0218 58.5111 65.0238 58.5747C65.0278 58.702 65.0353 58.887 65.0496 59.1222C65.0783 59.5924 65.134 60.2636 65.2424 61.0744C65.4591 62.6939 65.8874 64.8799 66.7361 67.1346C68.433 71.6422 71.8473 76.5001 78.6634 77.5344L78.6845 77.5376L78.7057 77.539L78.7384 77.04L78.7058 77.539L78.7061 77.539L78.7071 77.5391L78.7114 77.5393L78.7281 77.5404L78.7937 77.5447L79.0445 77.5612L79.954 77.6207C80.715 77.6704 81.7499 77.7379 82.8453 77.8089C85.0353 77.951 87.4698 78.1074 88.4399 78.1645L88.4475 78.165L88.4551 78.1652L88.4558 78.1652L88.4596 78.1653L88.4764 78.1659L88.5461 78.1686C88.6084 78.1713 88.702 78.1757 88.8251 78.1828C89.0712 78.1971 89.4349 78.2219 89.901 78.2642C90.8331 78.3489 92.1739 78.5036 93.8008 78.7833C97.0562 79.343 101.448 80.4019 106.003 82.3969C113.132 85.52 120.641 90.9257 124.83 100.303C124.391 99.5346 123.905 98.7426 123.368 97.9401C119.556 92.2424 113.174 85.9913 102.934 83.8656L101.047 83.474L102.505 84.7335L102.505 84.7336L102.506 84.7339L102.508 84.7356L102.517 84.7438L102.556 84.7783C102.591 84.8093 102.644 84.8565 102.713 84.9195C102.852 85.0457 103.057 85.2354 103.318 85.4871C103.841 85.9905 104.59 86.7417 105.491 87.7277C107.292 89.7002 109.696 92.6105 112.1 96.3555C115.616 101.831 119.126 109.082 120.761 117.79C119.857 114.253 118.569 110.112 116.758 105.918C111.939 94.7532 103.351 83.0725 88.3466 81.6368L88.3283 81.6351L88.3099 81.6347L88.3096 81.6346L88.3086 81.6346L88.3044 81.6345L88.288 81.6342L88.2239 81.6328L87.9786 81.6273L87.0871 81.6073C86.3404 81.5903 85.3234 81.5668 84.2418 81.5405C82.0762 81.488 79.6591 81.4249 78.631 81.382L78.6269 81.3818L78.5996 81.3801C78.5745 81.3785 78.5354 81.3756 78.4834 81.371C78.3795 81.3618 78.2237 81.3456 78.0231 81.3179C77.6218 81.2626 77.0421 81.1617 76.3394 80.9795C74.9332 80.6151 73.0415 79.9273 71.1033 78.6358C67.2481 76.0668 63.1417 71.0647 62.3782 61.2647L62.3782 61.2636L62.3775 61.2546L62.3749 61.2168C62.3727 61.1827 62.3695 61.1314 62.3658 61.0636C62.3584 60.9281 62.3489 60.727 62.3407 60.4678C62.3245 59.9494 62.3137 59.1993 62.3362 58.2778C62.3811 56.4335 62.5589 53.909 63.0891 51.1847C64.154 45.713 66.6156 39.5552 72.1415 36.3785L72.5082 36.1677L72.3612 35.7712L71.8923 35.945L72.3611 35.7711L72.361 35.7707L72.3604 35.769L72.3578 35.7622L72.3477 35.7345L72.3075 35.6249C72.2722 35.5283 72.2202 35.3854 72.1538 35.2008C72.0211 34.8315 71.8308 34.2957 71.6009 33.6307C71.1411 32.3005 70.5234 30.4544 69.8917 28.3907C69.7523 27.935 69.6123 27.4693 69.4734 26.9969C70.8114 29.9828 73.2408 32.6288 77.5015 33.8654ZM66.5959 15.8783C66.8979 15.4798 66.8976 15.4795 66.8972 15.4793L66.8961 15.4785L66.893 15.4761L66.8829 15.4686L66.8469 15.4423C66.8158 15.4198 66.7703 15.3875 66.71 15.346C66.5894 15.2629 66.4093 15.1429 66.1653 14.9906C65.6774 14.6859 64.934 14.2519 63.9 13.7252C61.832 12.6717 58.6016 11.2477 53.9271 9.74598C46.116 7.23661 34.2718 4.51023 17.0783 2.93363C20.9179 2.96263 25.5239 3.10003 30.4595 3.46385C37.1006 3.9534 44.3293 4.85224 51.0866 6.44498C57.7167 8.00774 63.8623 10.2315 68.552 13.369C68.5286 13.4788 68.5011 13.6135 68.4709 13.7709C68.3806 14.2411 68.2666 14.9145 68.1702 15.7334C67.9775 17.3686 67.8533 19.5957 68.1339 21.9471C68.1377 21.9787 68.1415 22.0102 68.1455 22.0418C67.6101 19.7852 67.209 17.6132 67.0948 15.8461L67.0801 15.6179L66.8979 15.4798L66.5959 15.8783Z" stroke="white"/>
<path d="M77.5015 33.8654L77.5698 33.8852H77.6409H83.1882L83.1975 33.8879C83.2477 33.9026 83.3225 33.9246 83.4192 33.9537C83.6127 34.0119 83.8941 34.0983 84.2435 34.2105C84.9427 34.4352 85.9131 34.763 86.9972 35.1752C89.1772 36.0042 91.7713 37.1581 93.554 38.481L94.352 39.0732V38.1708C94.3611 38.1826 94.3704 38.1944 94.3797 38.2062C95.0839 39.1032 96.2176 40.1698 97.932 40.8485L98.7094 41.1562L98.6127 40.3257L98.5812 40.0549C98.7511 40.2824 98.9348 40.5226 99.1285 40.7678C99.6114 41.3792 100.161 42.0279 100.719 42.5869C101.269 43.1382 101.857 43.6351 102.418 43.9074L103.251 44.3114L103.133 43.3933L103.001 42.3775C103.217 42.6748 103.45 42.9939 103.689 43.3177C104.174 43.976 104.687 44.6567 105.129 45.2119C105.35 45.4893 105.555 45.739 105.733 45.9404C105.902 46.1331 106.07 46.309 106.209 46.4162L106.36 46.5324L106.55 46.5187L108.604 46.3705L108.723 46.6102C108.891 46.9468 109.125 47.417 109.392 47.9512C109.925 49.0193 110.588 50.3439 111.106 51.368L111.122 51.4011L111.144 51.4311L111.144 51.4312L111.144 51.4313L111.144 51.4316L111.146 51.4348L111.156 51.4491C111.165 51.4621 111.179 51.4819 111.196 51.5075C111.23 51.5589 111.279 51.6332 111.335 51.7233C111.448 51.9055 111.586 52.1433 111.695 52.3811C111.798 52.6061 111.854 52.7854 111.867 52.9018C111.851 52.907 111.835 52.9132 111.818 52.9203C111.722 52.9607 111.557 53.0564 111.468 53.2613C111.377 53.4724 111.416 53.6842 111.486 53.8484C111.552 54.0005 111.661 54.1539 111.804 54.3134L111.817 54.3317C111.839 54.3624 111.87 54.4063 111.91 54.4617C111.991 54.5726 112.11 54.7296 112.263 54.9187C112.569 55.2964 113.016 55.8053 113.579 56.3316C114.505 57.1961 115.78 58.1391 117.293 58.5952C117.023 58.849 116.7 59.1566 116.372 59.4792C115.959 59.8851 115.533 60.32 115.193 60.7033C115.102 60.8071 115.014 60.9089 114.934 61.0068C114.893 60.9481 114.848 60.8858 114.801 60.8202C114.44 60.323 113.918 59.6364 113.268 58.8765C111.973 57.3635 110.144 55.5302 108.053 54.3352L108.045 54.3306L108.037 54.3264L108.037 54.3264L108.037 54.3263L108.036 54.3259L108.031 54.3231L108.007 54.3103C107.985 54.2986 107.953 54.2807 107.911 54.257C107.827 54.2094 107.705 54.1384 107.558 54.0469C107.263 53.8633 106.871 53.5997 106.479 53.2784C106.085 52.9555 105.703 52.585 105.418 52.1902C105.132 51.7948 104.966 51.406 104.947 51.0367C104.947 51.0352 104.947 51.0336 104.946 51.0321L104.882 48.6523L104.875 48.39L104.655 48.2469L104.382 48.6659C104.655 48.2469 104.655 48.2469 104.654 48.2468L104.654 48.2464L104.652 48.2452L104.645 48.2405L104.616 48.222L104.505 48.1502C104.408 48.0874 104.264 47.9953 104.079 47.8775C103.709 47.6419 103.173 47.3036 102.508 46.8921C101.178 46.0694 99.3329 44.9534 97.2692 43.7808C93.1599 41.4459 88.1247 38.851 84.5806 37.9345L84.5605 37.9293L84.54 37.9258L84.4554 38.4186C84.54 37.9258 84.5399 37.9258 84.5398 37.9257L84.5394 37.9257L84.5383 37.9255L84.5346 37.9249L84.5209 37.9226L84.4697 37.9142C84.4253 37.9071 84.3604 37.897 84.2773 37.8847C84.1112 37.8601 83.8718 37.8268 83.5759 37.7915C82.9847 37.7211 82.1649 37.6424 81.2514 37.61C79.4594 37.5465 77.1995 37.6551 75.6247 38.436L75.6067 38.4436C75.5842 38.4533 75.5523 38.4672 75.5116 38.4857C75.4303 38.5226 75.3138 38.5776 75.1673 38.6525C74.8742 38.8022 74.4603 39.0316 73.9656 39.355C72.9766 40.0016 71.6627 41.025 70.3467 42.5396C67.7077 45.5767 65.0845 50.5611 65.0194 58.3672H65.0193L65.0194 58.3739L65.5193 58.3713C65.0194 58.3739 65.0194 58.3742 65.0194 58.3745L65.0194 58.3755L65.0194 58.3785L65.0195 58.3891L65.0201 58.4282C65.0207 58.4619 65.0218 58.5111 65.0238 58.5747C65.0278 58.702 65.0353 58.887 65.0496 59.1222C65.0783 59.5924 65.134 60.2636 65.2424 61.0744C65.4591 62.6939 65.8874 64.8799 66.7361 67.1346C68.433 71.6422 71.8473 76.5001 78.6634 77.5344L78.6845 77.5376L78.7057 77.539L78.7384 77.04L78.7058 77.539L78.7061 77.539L78.7071 77.5391L78.7114 77.5393L78.7281 77.5404L78.7937 77.5447L79.0445 77.5612L79.954 77.6207C80.715 77.6704 81.7499 77.7379 82.8453 77.8089C85.0353 77.951 87.4698 78.1074 88.4399 78.1645L88.4475 78.165L88.4551 78.1652L88.4558 78.1652L88.4596 78.1653L88.4764 78.1659L88.5461 78.1686C88.6084 78.1713 88.702 78.1757 88.8251 78.1828C89.0712 78.1971 89.4349 78.2219 89.901 78.2642C90.8331 78.3489 92.1739 78.5036 93.8008 78.7833C97.0562 79.343 101.448 80.4019 106.003 82.3969C113.132 85.52 120.641 90.9257 124.83 100.303C124.391 99.5346 123.905 98.7426 123.368 97.9401C119.556 92.2424 113.174 85.9913 102.934 83.8656L101.047 83.474L102.505 84.7335L102.505 84.7336L102.506 84.7339L102.508 84.7356L102.517 84.7438L102.556 84.7783C102.591 84.8093 102.644 84.8565 102.713 84.9195C102.852 85.0457 103.057 85.2354 103.318 85.4871C103.841 85.9905 104.59 86.7417 105.491 87.7277C107.292 89.7002 109.696 92.6105 112.1 96.3555C115.616 101.831 119.126 109.082 120.761 117.79C119.857 114.253 118.569 110.112 116.758 105.918C111.939 94.7532 103.351 83.0725 88.3466 81.6368L88.3283 81.6351L88.3099 81.6347L88.3096 81.6346L88.3086 81.6346L88.3044 81.6345L88.288 81.6342L88.2239 81.6328L87.9786 81.6273L87.0871 81.6073C86.3404 81.5903 85.3234 81.5668 84.2418 81.5405C82.0762 81.488 79.6591 81.4249 78.631 81.382L78.6269 81.3818L78.5996 81.3801C78.5745 81.3785 78.5354 81.3756 78.4834 81.371C78.3795 81.3618 78.2237 81.3456 78.0231 81.3179C77.6218 81.2626 77.0421 81.1617 76.3394 80.9795C74.9332 80.6151 73.0415 79.9273 71.1033 78.6358C67.2481 76.0668 63.1417 71.0647 62.3782 61.2647L62.3782 61.2636L62.3775 61.2546L62.3749 61.2168C62.3727 61.1827 62.3695 61.1314 62.3658 61.0636C62.3584 60.9281 62.3489 60.727 62.3407 60.4678C62.3245 59.9494 62.3137 59.1993 62.3362 58.2778C62.3811 56.4335 62.5589 53.909 63.0891 51.1847C64.154 45.713 66.6156 39.5552 72.1415 36.3785L72.5082 36.1677L72.3612 35.7712L71.8923 35.945L72.3611 35.7711L72.361 35.7707L72.3604 35.769L72.3578 35.7622L72.3477 35.7345L72.3075 35.6249C72.2722 35.5283 72.2202 35.3854 72.1538 35.2008C72.0211 34.8315 71.8308 34.2957 71.6009 33.6307C71.1411 32.3005 70.5234 30.4544 69.8917 28.3907C69.7523 27.935 69.6123 27.4693 69.4734 26.9969C70.8114 29.9828 73.2408 32.6288 77.5015 33.8654ZM66.5959 15.8783C66.8979 15.4798 66.8976 15.4795 66.8972 15.4793L66.8961 15.4785L66.893 15.4761L66.8829 15.4686L66.8469 15.4423C66.8158 15.4198 66.7703 15.3875 66.71 15.346C66.5894 15.2629 66.4093 15.1429 66.1653 14.9906C65.6774 14.6859 64.934 14.2519 63.9 13.7252C61.832 12.6717 58.6016 11.2477 53.9271 9.74598C46.116 7.23661 34.2718 4.51023 17.0783 2.93363C20.9179 2.96263 25.5239 3.10003 30.4595 3.46385C37.1006 3.9534 44.3293 4.85224 51.0866 6.44498C57.7167 8.00774 63.8623 10.2315 68.552 13.369C68.5286 13.4788 68.5011 13.6135 68.4709 13.7709C68.3806 14.2411 68.2666 14.9145 68.1702 15.7334C67.9775 17.3686 67.8533 19.5957 68.1339 21.9471C68.1377 21.9787 68.1415 22.0102 68.1455 22.0418C67.6101 19.7852 67.209 17.6132 67.0948 15.8461L67.0801 15.6179L66.8979 15.4798L66.5959 15.8783Z" stroke="black"/>
<path d="M6.26578 2.64591C6.26578 2.64591 49.9306 -0.00278369 69.1148 13.1462C69.1148 13.1462 64.9811 29.7109 77.6409 33.3852H83.259C83.259 33.3852 90.1703 35.3474 93.852 38.0795V36.3702C93.852 36.3702 94.8865 39.1051 98.1161 40.3835L97.8575 38.1629C97.8575 38.1629 100.7 42.5181 102.637 43.4575L102.25 40.4697C102.25 40.4697 105.738 45.4225 106.514 46.02L108.902 45.8477C108.902 45.8477 110.517 49.0967 111.552 51.1423C111.552 51.1423 112.973 53.149 112.069 53.3658C112.069 53.3658 111.648 53.4047 112.197 54.0022C112.197 54.0022 114.748 57.8016 118.333 58.3157C118.333 58.3157 115.168 61.1729 114.943 61.9038C114.943 61.9038 111.842 57.0761 107.805 54.7693C107.805 54.7693 104.544 53.0628 104.447 51.0561L104.382 48.6659C104.382 48.6659 91.3982 40.214 84.4554 38.4186C84.4554 38.4186 78.7384 37.4375 75.8326 38.891C75.8326 38.891 65.6476 43.0017 65.5194 58.3713C65.5194 58.3713 65.6056 75.0472 78.7384 77.04C78.7384 77.04 86.5328 77.5514 88.4693 77.6654C88.4693 77.6654 122.597 78.6353 127.958 108.944C127.958 108.944 122.984 88.5381 102.832 84.3552C102.832 84.3552 122.21 101.092 122.21 127.985C122.21 127.985 117.752 84.9527 88.299 82.1345C88.299 82.1345 80.677 81.9678 78.6102 81.8816C78.6102 81.8816 63.4294 81.1951 61.8797 61.3035C61.8797 61.3035 60.4584 42.5181 71.8924 35.945C71.8924 35.945 67.0479 22.8794 66.5959 15.8783C66.5959 15.8783 52.5147 5.20567 6.26578 2.64591Z" stroke="white" stroke-width="0.216"/>
<path d="M6.26578 2.64591C6.26578 2.64591 49.9306 -0.00278369 69.1148 13.1462C69.1148 13.1462 64.9811 29.7109 77.6409 33.3852H83.259C83.259 33.3852 90.1703 35.3474 93.852 38.0795V36.3702C93.852 36.3702 94.8865 39.1051 98.1161 40.3835L97.8575 38.1629C97.8575 38.1629 100.7 42.5181 102.637 43.4575L102.25 40.4697C102.25 40.4697 105.738 45.4225 106.514 46.02L108.902 45.8477C108.902 45.8477 110.517 49.0967 111.552 51.1423C111.552 51.1423 112.973 53.149 112.069 53.3658C112.069 53.3658 111.648 53.4047 112.197 54.0022C112.197 54.0022 114.748 57.8016 118.333 58.3157C118.333 58.3157 115.168 61.1729 114.943 61.9038C114.943 61.9038 111.842 57.0761 107.805 54.7693C107.805 54.7693 104.544 53.0628 104.447 51.0561L104.382 48.6659C104.382 48.6659 91.3982 40.214 84.4554 38.4186C84.4554 38.4186 78.7384 37.4375 75.8326 38.891C75.8326 38.891 65.6476 43.0017 65.5194 58.3713C65.5194 58.3713 65.6056 75.0472 78.7384 77.04C78.7384 77.04 86.5328 77.5514 88.4693 77.6654C88.4693 77.6654 122.597 78.6353 127.958 108.944C127.958 108.944 122.984 88.5381 102.832 84.3552C102.832 84.3552 122.21 101.092 122.21 127.985C122.21 127.985 117.752 84.9527 88.299 82.1345C88.299 82.1345 80.677 81.9678 78.6102 81.8816C78.6102 81.8816 63.4294 81.1951 61.8797 61.3035C61.8797 61.3035 60.4584 42.5181 71.8924 35.945C71.8924 35.945 67.0479 22.8794 66.5959 15.8783C66.5959 15.8783 52.5147 5.20567 6.26578 2.64591Z" stroke="black" stroke-width="0.216"/>
<path fill-rule="evenodd" clip-rule="evenodd" d="M0.0651855 25.0139C0.0651855 25.0139 32.1678 14.9389 66.0786 17.079L66.659 20.1473C66.659 20.1473 36.7536 16.99 0.0651855 25.0139Z" fill="white" stroke="black"/>
<path fill-rule="evenodd" clip-rule="evenodd" d="M67.7586 25.7839L66.9828 22.4543C66.9828 22.4543 39.5963 24.5026 10.0126 48.7522C10.0126 48.7522 40.8873 25.7839 67.7586 25.7839Z" fill="white"/>
<path fill-rule="evenodd" clip-rule="evenodd" d="M67.7586 25.7839L66.9828 22.4543C66.9828 22.4543 39.5963 24.5026 10.0126 48.7522C10.0126 48.7522 40.8873 25.7839 67.7586 25.7839Z" stroke="white"/>
<path fill-rule="evenodd" clip-rule="evenodd" d="M67.7586 25.7839L66.9828 22.4543C66.9828 22.4543 39.5963 24.5026 10.0126 48.7522C10.0126 48.7522 40.8873 25.7839 67.7586 25.7839Z" stroke="black"/>
<path fill-rule="evenodd" clip-rule="evenodd" d="M109.388 49.989L109.354 50.9284C109.354 50.9284 110.034 51.9539 110.744 52.2986C110.744 52.2986 109.71 50.203 109.388 49.989Z" fill="white"/>
<path fill-rule="evenodd" clip-rule="evenodd" d="M109.388 49.989L109.354 50.9284C109.354 50.9284 110.034 51.9539 110.744 52.2986C110.744 52.2986 109.71 50.203 109.388 49.989Z" stroke="white" stroke-width="0.216"/>
<path fill-rule="evenodd" clip-rule="evenodd" d="M109.388 49.989L109.354 50.9284C109.354 50.9284 110.034 51.9539 110.744 52.2986C110.744 52.2986 109.71 50.203 109.388 49.989Z" stroke="black" stroke-width="0.216"/>
</g>
<defs>
<clipPath id="clip0_58_1188">
<rect width="128" height="128" fill="white"/>
</clipPath>
</defs>
</svg>
