<svg width="66" height="66" viewBox="0 0 66 66" fill="none" xmlns="http://www.w3.org/2000/svg">
<path d="M49.5 11H16.5C13.4624 11 11 13.4624 11 16.5V49.5C11 52.5376 13.4624 55 16.5 55H49.5C52.5376 55 55 52.5376 55 49.5V16.5C55 13.4624 52.5376 11 49.5 11Z" stroke="white" stroke-width="2" stroke-linecap="round" stroke-linejoin="round"/>
<path d="M49.5 11H16.5C13.4624 11 11 13.4624 11 16.5V49.5C11 52.5376 13.4624 55 16.5 55H49.5C52.5376 55 55 52.5376 55 49.5V16.5C55 13.4624 52.5376 11 49.5 11Z" stroke="white" stroke-width="2" stroke-linecap="round" stroke-linejoin="round"/>
<path d="M22 30.25V44" stroke="white" stroke-width="2" stroke-linecap="round" stroke-linejoin="round"/>
<path d="M22 22V22.0263" stroke="white" stroke-width="2" stroke-linecap="round" stroke-linejoin="round"/>
<path d="M33 44V30.25" stroke="white" stroke-width="2" stroke-linecap="round" stroke-linejoin="round"/>
<path d="M44 44V35.75C44 34.2913 43.4205 32.8924 42.3891 31.8609C41.3576 30.8295 39.9587 30.25 38.5 30.25C37.0413 30.25 35.6424 30.8295 34.6109 31.8609C33.5795 32.8924 33 34.2913 33 35.75" stroke="white" stroke-width="2" stroke-linecap="round" stroke-linejoin="round"/>
</svg>
