<svg width="50" height="52" viewBox="0 0 50 52" fill="none" xmlns="http://www.w3.org/2000/svg">
<path d="M44.6582 32.8043C44.5449 32.8043 44.4324 32.7734 44.3332 32.7133L43.298 32.0763C43.1433 31.9865 43.2187 31.9544 43.2699 31.9361C43.4762 31.8614 43.518 31.8439 43.7379 31.7147C43.7609 31.7013 43.791 31.7062 43.8148 31.7208L44.6097 32.212C44.6387 32.2286 44.6797 32.2286 44.7058 32.212L47.8062 30.3509C47.8355 30.3339 47.8539 30.2993 47.8539 30.2636V26.5423C47.8539 26.5058 47.8355 26.4721 47.8058 26.4534L44.7066 24.594C44.6777 24.5769 44.6398 24.5769 44.6109 24.594L41.5121 26.4538C41.4824 26.4721 41.4633 26.507 41.4633 26.5423V30.2636C41.4633 30.2993 41.4824 30.3331 41.5121 30.3497L42.3613 30.8604C42.8223 31.0997 43.1047 30.8177 43.1047 30.5342V26.8596C43.1047 26.808 43.1449 26.767 43.1945 26.767H43.5879C43.6367 26.767 43.6773 26.808 43.6773 26.8596V30.5342C43.6773 31.1736 43.3426 31.5404 42.7594 31.5404C42.5801 31.5404 42.439 31.5404 42.0453 31.3389L41.2324 30.8522C41.0312 30.7312 40.9074 30.5053 40.9074 30.264V26.5427C40.9074 26.301 41.0312 26.0756 41.2324 25.9553L44.3328 24.0918C44.5289 23.9769 44.7894 23.9769 44.984 24.0918L48.0844 25.9553C48.2851 26.076 48.4097 26.3014 48.4097 26.5427V30.264C48.4097 30.5057 48.2851 30.7304 48.0844 30.8522L44.984 32.7137C44.8855 32.7734 44.7734 32.8043 44.6582 32.8043V32.8043ZM45.6164 30.2404C44.259 30.2404 43.975 29.5925 43.975 29.0493C43.975 28.9981 44.0152 28.9563 44.0648 28.9563H44.4656C44.5105 28.9563 44.5476 28.9896 44.5547 29.0351C44.6148 29.4596 44.7957 29.6737 45.6164 29.6737C46.2691 29.6737 46.5473 29.5202 46.5473 29.1594C46.5473 28.9514 46.4683 28.7974 45.4535 28.6938C44.6051 28.6065 44.0805 28.4119 44.0805 27.7054C44.0805 27.055 44.6078 26.6667 45.4914 26.6667C46.4847 26.6667 46.9762 27.0254 47.0383 27.7948C47.0406 27.8208 47.0316 27.8464 47.0148 27.8663C46.9976 27.8846 46.9742 27.896 46.9492 27.896H46.5465C46.5047 27.896 46.468 27.8655 46.4594 27.8232C46.3625 27.3764 46.1281 27.2338 45.491 27.2338C44.7781 27.2338 44.6953 27.4926 44.6953 27.6855C44.6953 27.9199 44.793 27.9882 45.7558 28.1206C46.7086 28.2518 47.1613 28.4371 47.1613 29.1338C47.1617 29.8378 46.5984 30.2404 45.6164 30.2404" fill="#83CD29"/>
<path d="M38.2742 27.7997C38.3965 27.7254 38.4719 27.5897 38.4719 27.4422V26.4859C38.4719 26.3388 38.3969 26.2031 38.2742 26.1288L35.007 24.156C34.884 24.0817 34.7324 24.0813 34.609 24.1552L31.3215 26.1292C31.1988 26.2031 31.123 26.3392 31.123 26.4867V30.4338C31.123 30.5821 31.1996 30.7194 31.3238 30.793L34.5906 32.7287C34.7109 32.8006 34.8586 32.801 34.9801 32.7312L36.9559 31.5888C37.0187 31.5522 37.0578 31.484 37.0582 31.41C37.0586 31.3353 37.0203 31.2662 36.9582 31.2293L33.6504 29.2549C33.5883 29.2179 33.5504 29.1497 33.5504 29.0761V27.8387C33.5504 27.7648 33.5883 27.6969 33.6496 27.6604L34.6797 27.0429C34.7406 27.0059 34.8164 27.0059 34.8777 27.0429L35.9078 27.6604C35.9695 27.6973 36.0074 27.7652 36.0074 27.8387V28.8121C36.0074 28.8864 36.0453 28.9547 36.1066 28.9912C36.1684 29.0282 36.2441 29.0282 36.3059 28.9908L38.2742 27.7997" fill="#404137"/>
<path d="M34.7594 27.6144C34.7832 27.6006 34.8121 27.6006 34.8356 27.6144L35.4664 27.9935C35.4899 28.0077 35.5043 28.0341 35.5043 28.0621V28.8198C35.5043 28.8482 35.4899 28.8742 35.4664 28.8884L34.8356 29.2671C34.8121 29.2813 34.7828 29.2813 34.7594 29.2671L34.1289 28.8884C34.1051 28.8742 34.0906 28.8482 34.0906 28.8198V28.0621C34.0906 28.0341 34.1051 28.0077 34.1289 27.9935L34.7594 27.6144Z" fill="#83CD29"/>
<path d="M26.2043 29.1907C26.2043 29.2273 26.1855 29.2614 26.1547 29.2801L25.0258 29.9569C24.9949 29.9756 24.957 29.9756 24.9266 29.9569L23.7977 29.2801C23.7668 29.2614 23.748 29.2273 23.748 29.1907V27.8346C23.748 27.7981 23.7672 27.7635 23.7977 27.7448L24.9266 27.0672C24.9574 27.0481 24.9953 27.0481 25.0262 27.0672L26.1555 27.7448C26.1859 27.7635 26.2047 27.7981 26.2047 27.8346V29.1907H26.2043ZM26.5094 19.1498C26.448 19.1145 26.373 19.1153 26.3121 19.1523C26.2516 19.1896 26.2141 19.2571 26.2141 19.3302V24.5769C26.2141 24.6281 26.1875 24.676 26.1449 24.702C26.102 24.7276 26.0488 24.7276 26.0059 24.702L25.1824 24.2084C25.0598 24.1349 24.9086 24.1349 24.7859 24.2084L21.4977 26.182C21.3746 26.2559 21.2988 26.3924 21.2988 26.5399V30.4883C21.2988 30.6357 21.3746 30.7718 21.4973 30.8462L24.7855 32.8209C24.9082 32.8949 25.0598 32.8949 25.1828 32.8209L28.4719 30.8462C28.5945 30.7718 28.6703 30.6357 28.6703 30.4883V20.646C28.6703 20.4965 28.5922 20.3584 28.4668 20.2853L26.5094 19.1498" fill="#404137"/>
<path d="M14.9367 24.1341C15.0594 24.0601 15.2109 24.0601 15.3336 24.1341L18.6219 26.1072C18.7445 26.1812 18.8203 26.3177 18.8203 26.4651V30.4147C18.8203 30.5622 18.7445 30.6987 18.6219 30.7726L15.334 32.7474C15.2113 32.8209 15.0598 32.8209 14.9367 32.7474L11.6496 30.7726C11.527 30.6987 11.4512 30.5622 11.4512 30.4147V26.4647C11.4512 26.3177 11.527 26.1812 11.6496 26.1072L14.9367 24.1341" fill="#83CD29"/>
<path d="M8.95704 26.4322C8.95704 26.2835 8.88204 26.147 8.75861 26.0735L5.4715 24.106C5.41525 24.0719 5.35314 24.0544 5.29025 24.052H5.25626C5.19376 24.0544 5.13126 24.0719 5.07501 24.106L1.78751 26.0735C1.66525 26.147 1.58868 26.2835 1.58868 26.4322L1.59572 31.7297C1.59572 31.8037 1.63282 31.8723 1.69493 31.9081C1.75587 31.9463 1.83126 31.9463 1.8922 31.9081L3.84532 30.7446C3.96876 30.6682 4.04415 30.5337 4.04415 30.3863V27.9114C4.04415 27.7635 4.11915 27.6274 4.2422 27.5535L5.07423 27.0554C5.13595 27.0176 5.20392 26.9998 5.27267 26.9998C5.34064 26.9998 5.41017 27.0176 5.47072 27.0554L6.30197 27.5535C6.42501 27.6274 6.50079 27.7635 6.50079 27.9114V30.3863C6.50079 30.5337 6.57697 30.669 6.69962 30.7446L8.65275 31.9081C8.71407 31.9463 8.79064 31.9463 8.85118 31.9081C8.91173 31.8719 8.94962 31.8033 8.94962 31.7297L8.95704 26.4322Z" fill="#404137"/>
</svg>
