<svg width="53" height="47" viewBox="0 0 53 47" fill="none" xmlns="http://www.w3.org/2000/svg">
<path d="M26.5 20.8562C28.6267 20.8562 30.3507 19.3274 30.3507 17.4414C30.3507 15.5554 28.6267 14.0266 26.5 14.0266C24.3732 14.0266 22.6492 15.5554 22.6492 17.4414C22.6492 19.3274 24.3732 20.8562 26.5 20.8562Z" fill="#61DAFB"/>
<path d="M26.5 30.2389C29.5226 32.8459 32.5039 34.3881 34.9054 34.3881C35.6922 34.3881 36.4375 34.2412 37.0586 33.9107C39.2117 32.8092 39.9984 30.0553 39.2531 26.1264C39.1289 25.4287 38.9633 24.7311 38.7562 23.9967C39.5844 23.7764 40.3297 23.5561 41.075 23.3357C45.257 21.9037 47.5758 19.9209 47.5758 17.7545C47.5758 15.5514 45.257 13.5686 41.075 12.1732C40.3297 11.9162 39.5844 11.6959 38.7562 11.5123C38.9633 10.7779 39.1289 10.0803 39.2531 9.38262C39.957 5.38027 39.1703 2.58965 37.0172 1.48809C36.3961 1.15762 35.6508 1.01074 34.864 1.01074C32.5039 1.01074 29.4812 2.55293 26.4586 5.15996C23.4773 2.55293 20.4961 1.01074 18.0945 1.01074C17.3078 1.01074 16.5625 1.15762 15.9414 1.48809C13.7883 2.58965 13.0015 5.34356 13.7469 9.27246C13.8711 9.97012 14.0367 10.6678 14.2437 11.4021C13.4156 11.6225 12.6703 11.8428 11.925 12.0631C7.74294 13.4951 5.42419 15.4779 5.42419 17.6443C5.42419 19.8475 7.74294 21.8303 11.925 23.2256C12.6703 23.4826 13.4156 23.7029 14.2437 23.8865C14.0367 24.6209 13.8711 25.3186 13.7469 26.0162C13.0429 29.9451 13.8297 32.7357 15.9414 33.8006C16.5625 34.1311 17.3078 34.2779 18.0945 34.2779C20.4961 34.3514 23.4773 32.8092 26.5 30.2389V30.2389ZM24.1812 25.2818C24.9265 25.3186 25.7133 25.3186 26.5 25.3186C27.2867 25.3186 28.0734 25.3186 28.8187 25.2818C28.0734 26.1631 27.2867 26.9709 26.5 27.742C25.7133 26.9709 24.9265 26.1631 24.1812 25.2818V25.2818ZM19.0469 21.4998C19.4609 22.124 19.8336 22.7115 20.289 23.299C19.0054 23.1522 17.8047 22.9686 16.6453 22.7482C17.0179 21.7568 17.432 20.7287 17.9289 19.7006C18.2601 20.2881 18.6328 20.9123 19.0469 21.4998V21.4998ZM16.6453 12.6506C17.8047 12.4303 19.0054 12.2467 20.289 12.0998C19.875 12.6873 19.4609 13.2748 19.0469 13.899C18.6328 14.5232 18.2601 15.1107 17.9289 15.735C17.3906 14.6701 16.9765 13.642 16.6453 12.6506V12.6506ZM18.9226 17.6811C19.4609 16.6897 20.0406 15.6982 20.7031 14.7068C21.3242 13.7522 22.0281 12.7975 22.732 11.8428C23.9742 11.7693 25.2164 11.7326 26.5 11.7326C27.825 11.7326 29.0672 11.7693 30.2679 11.8428C31.0133 12.7975 31.6758 13.7522 32.2969 14.7068C32.9594 15.6982 33.539 16.6897 34.0773 17.6811C33.539 18.6725 32.9594 19.6639 32.2969 20.6553C31.6758 21.61 30.9719 22.5647 30.2679 23.5193C29.0258 23.5928 27.7836 23.6295 26.5 23.6295C25.175 23.6295 23.9328 23.5928 22.732 23.5193C21.9867 22.5647 21.3242 21.61 20.7031 20.6553C20.0406 19.6639 19.4609 18.6725 18.9226 17.6811V17.6811ZM35.1125 15.6982L33.9945 13.8623C33.5804 13.2381 33.2078 12.6506 32.7523 12.0631C34.0359 12.21 35.2367 12.3936 36.3961 12.6139C36.0234 13.642 35.6094 14.6701 35.1125 15.6982ZM35.1125 19.6639C35.6094 20.692 36.0234 21.7201 36.3961 22.7115C35.2367 22.9318 34.0359 23.1154 32.7523 23.2623C33.1664 22.6748 33.5804 22.0873 33.9945 21.4631C34.3672 20.9123 34.7398 20.2881 35.1125 19.6639ZM36.0648 32.4053C35.7336 32.5889 35.3195 32.6623 34.864 32.6623C32.8351 32.6623 30.3094 31.1936 27.825 28.9904C29.0258 27.8522 30.1851 26.567 31.3445 25.135C33.2906 24.9881 35.1539 24.7311 36.8929 24.3639C37.1 25.0248 37.2242 25.6857 37.3484 26.3467C37.9281 29.4678 37.4726 31.7076 36.0648 32.4053V32.4053ZM38.2179 13.0545C42.8554 14.2295 45.6297 16.0287 45.6297 17.6811C45.6297 19.1131 43.725 20.5451 40.3711 21.6834C39.7086 21.9037 38.9633 22.124 38.2179 22.3076C37.6797 20.8022 37.0172 19.26 36.189 17.6811C37.0172 16.1022 37.7211 14.56 38.2179 13.0545ZM34.9054 2.6998C35.3609 2.6998 35.7336 2.77324 36.1062 2.95684C37.4726 3.65449 37.9695 5.85762 37.3898 9.01543C37.2656 9.63965 37.1 10.3006 36.9344 10.9982C35.1953 10.6678 33.332 10.4107 31.3859 10.2271C30.2679 8.79512 29.0672 7.50996 27.8664 6.37168C30.3508 4.20527 32.8765 2.6998 34.9054 2.6998V2.6998ZM28.8187 10.0803C28.0734 10.0436 27.2867 10.0436 26.5 10.0436C25.7133 10.0436 24.9265 10.0436 24.1812 10.0803C24.9265 9.19902 25.7133 8.39121 26.5 7.62012C27.2867 8.39121 28.0734 9.23574 28.8187 10.0803ZM16.9351 2.95684C17.2664 2.77324 17.6804 2.6998 18.1359 2.6998C20.1648 2.6998 22.6906 4.16856 25.175 6.37168C23.9742 7.50996 22.8148 8.79512 21.6554 10.2271C19.7094 10.374 17.8461 10.6311 16.107 10.9982C15.9 10.3373 15.7758 9.67637 15.6515 9.01543C15.0719 5.89434 15.5273 3.69121 16.9351 2.95684V2.95684ZM14.782 22.3076C10.1445 21.1326 7.37029 19.3334 7.37029 17.6811C7.37029 16.249 9.27498 14.817 12.6289 13.6787C13.2914 13.4584 14.0367 13.2381 14.782 13.0545C15.3203 14.56 15.9828 16.1022 16.8109 17.6811C15.9828 19.26 15.2789 20.8389 14.782 22.3076ZM15.6515 26.3467C15.7758 25.7225 15.9414 25.0615 16.107 24.3639C17.8461 24.6943 19.7094 24.9514 21.6554 25.135C22.7734 26.567 23.9742 27.8522 25.175 28.9904C22.6906 31.1568 20.1648 32.6623 18.1359 32.6623C17.6804 32.6623 17.3078 32.5889 16.9351 32.4053C15.5273 31.7076 15.0719 29.4678 15.6515 26.3467V26.3467ZM13.9125 41.4748C14.8234 40.4834 14.8648 39.3818 14.3679 38.2803C13.8711 37.1787 12.8359 36.6647 11.5523 36.6279C10.0203 36.5912 8.44685 36.6279 6.91482 36.6279H6.62498V46.1381H7.86716V42.5397H9.81326C10.0617 42.5397 10.2687 42.6131 10.3929 42.7967L12.8773 46.2115C12.9187 46.285 13.0429 46.3951 13.1258 46.3951H14.7406C13.7469 45.0365 12.7945 43.7514 11.8008 42.4295C12.6703 42.3193 13.4156 42.0623 13.9125 41.4748V41.4748ZM7.86716 41.4014V37.7662H8.32263C9.27498 37.7662 10.2687 37.7295 11.2211 37.8029C12.339 37.8397 13.1258 38.6107 13.1258 39.6022C13.1258 40.5936 12.2148 41.3647 11.0969 41.4014C10.1031 41.4381 9.10935 41.4014 7.86716 41.4014V41.4014ZM23.8914 41.8787C23.2289 39.3084 20.5789 38.6475 18.55 39.4553C16.9765 40.0795 16.2726 41.2912 16.2312 42.7967C16.1898 43.935 16.5625 44.9631 17.5562 45.7342C18.6742 46.6154 20.0406 46.7256 21.4484 46.5053C22.2351 46.3584 22.939 46.0279 23.4773 45.5139C23.2703 45.2568 23.0633 44.9998 22.8562 44.7795C21.6969 45.6607 20.4133 45.9545 19.0054 45.367C18.0945 44.9631 17.639 43.9717 17.5562 43.2373H23.9742V42.76C24.0156 42.4295 23.9742 42.1357 23.8914 41.8787V41.8787ZM17.639 42.4662C17.5148 41.3647 18.757 40.1897 20.1234 40.1897C21.6969 40.1529 22.6906 40.9975 22.732 42.4662H17.639V42.4662ZM30.3508 39.2717C29.7297 39.1615 29.0672 39.1248 28.4461 39.1615C27.4523 39.235 26.5828 39.6389 25.8789 40.2998C26.0859 40.5568 26.2515 40.8139 26.5 41.1076C26.5828 41.0342 26.6656 40.9607 26.7484 40.924C27.4109 40.3732 28.1976 40.0795 29.15 40.1529C29.8953 40.1897 30.5992 40.41 30.8062 41.0709C30.9719 41.585 30.9304 42.1357 30.9719 42.6865C30.8476 42.6865 30.8062 42.6498 30.7648 42.6131C29.7711 41.8787 28.6531 41.7318 27.4523 41.9889C26.3344 42.2459 25.6304 43.017 25.5476 44.0084C25.4648 45.1467 26.0445 45.9912 27.1625 46.3951C27.8664 46.6522 28.6531 46.6522 29.3984 46.5053C29.9781 46.3951 30.2265 46.1014 31.0547 45.6975V46.1748H32.214C32.214 44.7061 32.2554 42.9068 32.214 41.2178C32.214 40.1529 31.5101 39.492 30.3508 39.2717ZM30.9304 43.8982C30.889 44.0084 30.9304 44.1186 30.9304 44.2287C30.9304 44.9998 30.7234 45.2568 29.8953 45.5506C29.3156 45.7342 28.6945 45.8076 28.0734 45.624C27.3695 45.4404 26.8726 44.8897 26.8726 44.2654C26.8312 43.6412 27.2867 43.017 27.9906 42.8334C28.9429 42.5397 29.8125 42.7232 30.5992 43.2373C30.8476 43.4209 31.0133 43.6045 30.9304 43.8982V43.8982ZM37.3898 40.2631C38.4664 39.9693 39.4601 40.1529 40.2054 40.9607L40.3297 41.0342C40.6195 40.8139 40.8679 40.5936 41.1992 40.3365C41.075 40.2264 41.0336 40.1529 40.9508 40.0428C39.75 38.9045 37.3898 38.7576 35.9406 39.6756C33.9117 40.9975 33.9531 43.5678 34.9469 44.9264C35.8992 46.2115 37.2656 46.6522 38.8804 46.4686C39.8328 46.3584 40.6195 45.9545 41.2406 45.2568C40.9508 45.0365 40.6609 44.8162 40.3711 44.5592C40.2883 44.6326 40.2469 44.6693 40.2054 44.7428C39.0875 45.8443 37.2242 45.7342 36.2304 44.5592C35.6508 43.8615 35.5265 43.0537 35.6922 42.2459C35.775 41.3279 36.3133 40.5936 37.3898 40.2631ZM46.0023 45.2568C45.9195 45.2936 45.8781 45.3303 45.8781 45.3303C45.5469 45.5506 45.2156 45.5873 44.8429 45.4772C44.4703 45.3303 44.4289 45.0365 44.3875 44.7428V40.5568C44.3875 40.4834 44.3875 40.6303 44.4289 40.2631H46.0023V39.1615H44.3461V37.3256H43.1039V39.3084H42.0273C41.9445 39.3084 41.8203 39.3818 41.8203 39.4553C41.7789 39.7123 41.8203 39.8959 41.8203 40.2631H43.1453V44.9631C43.1453 45.5506 43.3109 46.0647 43.8906 46.3584C44.5117 46.6889 45.7125 46.6154 46.2508 46.2115C46.3336 46.1748 46.375 46.0279 46.375 45.9912C46.2508 45.7709 46.1265 45.5139 46.0023 45.2568V45.2568Z" fill="#61DAFB"/>
</svg>
