<svg width="46" height="49" viewBox="0 0 46 49" fill="none" xmlns="http://www.w3.org/2000/svg">
<path d="M39.2116 28.164C37.6178 28.1741 36.2376 28.7254 35.0851 29.5421C34.6652 28.3271 34.2311 27.2657 34.1599 26.4696C34.0748 25.5405 33.9821 24.9895 34.0818 23.8871C34.1815 22.7845 34.6296 21.2227 34.6225 21.1106C34.6155 20.9984 34.5229 20.4368 33.6051 20.4266C32.6874 20.4165 31.8977 20.6817 31.8051 21.0288C31.7124 21.3758 31.5348 22.162 31.4281 22.9785C31.2644 24.1728 29.5923 28.4396 28.646 30.6648C28.333 29.7974 28.0698 29.0316 28.0128 28.4192C27.9274 27.4901 27.8349 26.9391 27.9345 25.8367C28.0341 24.7341 28.4823 23.1723 28.4752 23.0602C28.468 22.948 28.3756 22.3864 27.4579 22.3762C26.54 22.3661 25.7504 22.6313 25.6577 22.9785C25.5653 23.3254 25.4656 24.1421 25.2807 24.9284C25.0958 25.714 22.8687 32.8184 22.2853 34.6662C21.9864 35.605 21.7304 36.3605 21.5454 36.871C21.517 36.9526 21.4957 37.0037 21.4814 37.0446C21.5027 36.9936 21.517 36.9423 21.517 36.9631C21.3605 37.4018 21.2679 37.6468 21.2679 37.6468V37.6569C21.1469 37.9835 21.0118 38.2794 20.9478 38.2794C20.905 38.2794 20.8126 37.4222 20.9692 36.2482C21.3035 33.778 22.0932 29.9403 22.0861 29.8074C22.079 29.7359 22.2354 29.0725 21.5667 28.7151C20.9193 28.3783 20.6844 28.9398 20.6276 28.9398C20.5707 28.9398 20.528 29.1441 20.528 29.1441C20.528 29.1441 21.2466 24.816 19.1477 24.816C17.8386 24.816 16.0172 26.8781 15.1208 28.746C14.5587 29.185 13.342 30.1342 12.0614 31.1447C11.5705 31.5326 11.0653 31.9306 10.5886 32.3084C10.5531 32.2571 10.5246 32.2061 10.489 32.1551C7.9419 28.2561 3.23899 25.5 3.43831 20.2634C3.5094 18.3545 3.97191 13.3429 12.4812 7.25911C19.4538 2.27786 25.0318 3.64574 25.9924 6.68747C27.3725 11.0258 23.0111 19.0999 15.7683 20.2634C13.0077 20.7023 11.5564 19.1712 11.1935 18.5997C10.8164 17.9975 10.7594 17.9667 10.6171 18.0791C10.3823 18.2628 10.5318 18.7936 10.6171 19.11C10.8306 19.9163 11.7199 21.3454 13.2355 22.06C14.5657 22.6826 17.8031 23.0298 21.7162 20.8555C26.1131 18.426 29.5354 11.6584 28.5322 5.99338C27.5078 0.236496 20.8554 -1.65202 14.5588 1.55309C10.8093 3.46192 6.75389 6.46303 3.83675 10.3723C0.371848 15.0271 -0.183044 19.0793 0.0444972 20.7739C0.855645 26.7859 6.6328 30.7057 8.94514 33.6046C8.83127 33.6965 8.72453 33.7782 8.62502 33.8598C7.46533 34.6865 3.06125 37.9937 1.9584 41.4851C0.713456 45.4455 2.16465 48.2829 3.11809 48.671C6.09206 49.855 9.13724 47.7217 10.7737 44.2204C12.4099 40.7194 12.2108 36.1464 11.4567 34.064C11.4495 34.0334 11.4353 34.0133 11.4283 33.9823C11.727 33.7273 12.0329 33.472 12.339 33.2169C12.9294 32.7167 13.5058 32.2571 14.0109 31.8594C13.7262 32.9619 13.5199 34.2883 13.4132 36.2076C13.2852 38.4531 13.9326 41.3623 14.7722 42.5056C15.142 43.0058 15.5903 43.0162 15.8678 43.0162C16.8497 43.0162 17.2907 41.8523 17.7816 40.4641C18.3864 38.7693 18.92 36.7993 18.92 36.7993C18.92 36.7993 18.2513 42.128 20.0797 42.128C20.7485 42.128 21.4174 40.8928 21.7161 40.26V40.27C21.7161 40.27 21.7304 40.2294 21.766 40.1479C21.8371 39.9946 21.8726 39.9027 21.8726 39.9027V39.8719C22.1429 39.2084 22.7336 37.6874 23.6227 35.1766C24.7755 31.9304 25.8782 27.8779 25.8782 27.8779C25.8782 27.8779 25.9778 28.8684 26.3195 30.5117C26.5186 31.4814 26.9383 32.543 27.2727 33.574C27.0025 34.1047 26.8387 34.411 26.8387 34.411C26.8387 34.411 26.8387 34.4211 26.8456 34.4313C26.6323 34.8399 26.3905 35.2788 26.1414 35.7076C25.2307 37.259 24.1492 39.0353 24.007 39.5455C23.8361 40.1479 23.8789 40.5966 24.2062 40.944C24.448 41.2095 24.875 41.2501 25.3232 41.1992C26.1414 41.1173 26.7177 40.8317 26.9952 40.6476C27.4362 40.4235 27.9486 40.0659 28.4324 39.5659C29.3218 38.627 29.8626 37.2796 29.8126 35.5034C29.7842 34.5235 29.5635 33.5435 29.2932 32.6251C29.3715 32.4616 29.4569 32.2878 29.5351 32.1147C30.9441 29.1643 32.0326 25.9289 32.0326 25.9289C32.0326 25.9289 32.1322 26.9188 32.4736 28.5622C32.6444 29.3891 32.9788 30.2976 33.2846 31.1855C31.9613 32.7269 31.1432 34.5134 30.8585 35.687C30.3319 37.8613 30.7446 38.8409 31.5201 39.066C31.8688 39.168 32.3668 38.933 32.7369 38.7084C33.1993 38.4838 33.7543 38.1265 34.2736 37.5754C35.163 36.6365 36.0239 35.3195 35.9671 33.5332C35.9456 32.7268 35.7892 31.9205 35.5828 31.1447C36.6997 30.4712 38.1514 30.1034 40.0012 30.4098C43.9641 31.0732 44.7395 34.6254 44.5901 36.1053C44.4409 37.5958 43.6084 38.4125 43.3309 38.6574C43.0533 38.9025 42.968 38.9944 42.9895 39.178C43.0249 39.4434 43.153 39.4333 43.3877 39.3718C43.7152 39.2903 45.4653 38.1673 45.5434 35.4215C45.6575 31.9509 43.3311 28.1335 39.2116 28.164ZM8.6677 42.9342C7.35869 44.9859 5.52301 45.7617 4.73335 45.1084C3.88666 44.4043 4.22104 41.3828 5.83611 39.1982C6.81796 37.8714 8.08439 36.6466 8.92395 35.8913C9.11605 35.728 9.39359 35.483 9.7351 35.1869C9.79204 35.1362 9.82045 35.1156 9.82045 35.1156C9.88442 35.0541 9.95561 35.0033 10.0268 34.9419C10.6171 38.045 10.048 40.7805 8.6677 42.9342ZM18.2301 33.6046C17.7747 35.207 16.8141 39.2901 16.2309 39.0758C15.7329 38.8919 15.4268 35.7787 16.1313 32.7167C16.487 31.1752 17.2411 29.338 17.6894 28.6236C18.4079 27.4699 19.1977 27.1024 19.3827 27.5618C19.6317 28.164 18.5145 32.6043 18.2301 33.6046ZM26.1274 39.0148C25.9354 39.1576 25.7574 39.2494 25.6721 39.1779C25.6081 39.1269 25.7504 38.9329 25.7504 38.9329C25.7504 38.9329 26.7392 37.412 27.1306 36.7176C27.3583 36.3095 27.6214 35.8296 27.9061 35.299C27.9061 35.3497 27.9131 35.4012 27.9131 35.4621C27.9062 37.2895 26.6825 38.5249 26.1274 39.0148ZM32.2178 37.0242C32.0755 36.8813 32.0967 36.4015 32.5735 34.9111C32.7586 34.3292 33.1855 33.3494 33.9253 32.4103C34.0107 32.7981 34.0604 33.1655 34.0604 33.5125C34.0532 35.8093 32.9079 36.6668 32.2178 37.0242Z" fill="#CF649A"/>
</svg>
