<svg width="24" height="24" viewBox="0 0 24 24" fill="none" xmlns="http://www.w3.org/2000/svg">
<g clip-path="url(#clip0_176_37)">
<path d="M17.61 16.906C17.61 16.904 17.61 16.902 17.61 16.899C17.61 16.559 17.423 16.263 17.146 16.108L17.141 16.106C15.219 14.975 12.906 14.306 10.438 14.306C10.339 14.306 10.241 14.307 10.142 14.309H10.157C8.55899 14.325 7.01499 14.517 5.53099 14.868L5.67299 14.84C5.29999 14.887 5.01399 15.203 5.01399 15.586C5.01399 15.61 5.01499 15.633 5.01699 15.656V15.653V15.665C5.01699 15.87 5.09799 16.056 5.22899 16.193C5.36099 16.333 5.54699 16.42 5.75399 16.42C5.76399 16.42 5.77499 16.42 5.78499 16.419H5.78399C6.00899 16.385 6.20399 16.342 6.39499 16.286L6.36299 16.294C7.49899 16.039 8.80699 15.887 10.149 15.872H10.159C10.234 15.87 10.323 15.869 10.412 15.869C12.605 15.869 14.658 16.468 16.417 17.511L16.363 17.481C16.509 17.578 16.686 17.64 16.876 17.653H16.879H16.88C17.285 17.653 17.614 17.325 17.614 16.919C17.614 16.913 17.614 16.908 17.614 16.902V16.903L17.61 16.906ZM19.11 13.546C19.11 13.536 19.11 13.525 19.11 13.514C19.11 13.119 18.891 12.774 18.568 12.596L18.563 12.593C16.205 11.206 13.368 10.386 10.34 10.386C10.222 10.386 10.103 10.387 9.98599 10.39H10.004C8.31799 10.391 6.68799 10.63 5.14599 11.077L5.26899 11.046C4.83699 11.135 4.51599 11.512 4.51599 11.965C4.51599 11.994 4.51699 12.022 4.51999 12.05V12.046V12.05C4.51999 12.566 4.93799 12.984 5.45399 12.984H5.45799C5.67599 12.956 5.87199 12.912 6.06099 12.853L6.03699 12.86C7.20499 12.532 8.54599 12.344 9.93099 12.344H9.95799H9.95699C10.056 12.342 10.173 12.34 10.291 12.34C12.974 12.34 15.489 13.061 17.652 14.319L17.582 14.281C17.751 14.389 17.953 14.462 18.17 14.484H18.176H18.18C18.696 14.484 19.114 14.066 19.114 13.55C19.114 13.549 19.114 13.547 19.114 13.546H19.11ZM20.8 9.67202C20.801 9.65702 20.801 9.63802 20.801 9.62002C20.801 9.17102 20.55 8.78102 20.181 8.58102L20.175 8.57802C18.855 7.82002 17.324 7.22402 15.703 6.87102L15.597 6.85202C14.001 6.48002 12.168 6.26602 10.285 6.26602C10.268 6.26602 10.251 6.26602 10.235 6.26602H10.238C10.154 6.26502 10.054 6.26402 9.95399 6.26402C8.03099 6.26402 6.16999 6.53302 4.40799 7.03502L4.54999 7.00002C4.30699 7.07402 4.10199 7.21402 3.94999 7.39802L3.94799 7.40002C3.79799 7.59102 3.70699 7.83602 3.70699 8.10202C3.70699 8.12202 3.70699 8.14102 3.70799 8.16102V8.15802V8.18702C3.70799 8.49202 3.82999 8.76902 4.02899 8.97102C4.22499 9.17402 4.49999 9.29902 4.80399 9.29902H4.83599H4.83399C5.06399 9.27902 5.27699 9.23502 5.47899 9.16802L5.45899 9.17402C6.81799 8.80502 8.37799 8.59402 9.98799 8.59402C10.083 8.59402 10.178 8.59502 10.273 8.59602H10.259H10.303C12.002 8.59602 13.655 8.79002 15.242 9.15602L15.095 9.12702C16.589 9.44002 17.914 9.95402 19.123 10.646L19.056 10.611C19.234 10.722 19.449 10.791 19.679 10.798H19.681H19.691C19.995 10.798 20.27 10.676 20.469 10.478C20.674 10.284 20.802 10.009 20.802 9.70502C20.802 9.69302 20.802 9.68202 20.801 9.67002V9.67202H20.8ZM24 12V12.09C24 14.277 23.402 16.324 22.36 18.077L22.39 18.023C21.323 19.847 19.846 21.324 18.079 22.36L18.023 22.39C16.294 23.402 14.217 23.999 11.999 23.999C9.78099 23.999 7.70399 23.402 5.91799 22.359L5.97499 22.39C4.15099 21.323 2.67399 19.846 1.63799 18.079L1.60799 18.023C0.595993 16.294 -0.00100708 14.217 -0.00100708 11.999C-0.00100708 9.78102 0.595993 7.70402 1.63899 5.91802L1.60799 5.97502C2.67499 4.15102 4.15199 2.67402 5.91899 1.63802L5.97499 1.60802C7.70399 0.596024 9.78099 -0.000976562 11.999 -0.000976562C14.217 -0.000976562 16.294 0.596024 18.08 1.63902L18.023 1.60802C19.847 2.67502 21.324 4.15202 22.36 5.91902L22.39 5.97502C23.402 7.67402 24 9.72102 24 11.908V12.004V11.999V12Z" fill="white"/>
</g>
<defs>
<clipPath id="clip0_176_37">
<rect width="24" height="24" fill="white"/>
</clipPath>
</defs>
</svg>
