<svg width="55" height="52" viewBox="0 0 55 52" fill="none" xmlns="http://www.w3.org/2000/svg">
<path d="M0.859375 25.9634V51.3541H54.5703V0.572815H0.859375V25.9634ZM44.1418 23.9322C45.4282 24.2144 46.5974 24.8506 47.502 25.7603C47.9999 26.2504 48.4328 26.7961 48.791 27.3853C48.791 27.4503 46.4707 28.9331 45.057 29.7619C45.0055 29.7944 44.7992 29.5831 44.5715 29.2622C44.3134 28.8412 43.9467 28.4888 43.5057 28.2381C43.0646 27.9873 42.5635 27.8463 42.0492 27.8281C40.4207 27.7225 39.3723 28.5309 39.3809 29.8594C39.3674 30.1901 39.4475 30.5183 39.6129 30.81C39.9695 31.5128 40.6355 31.9312 42.7238 32.7844C46.5695 34.3484 48.2152 35.3803 49.2379 36.8469C50.3809 38.4719 50.6344 41.0963 49.8609 43.0381C49.0016 45.1506 46.8961 46.5847 43.9184 47.06C42.5583 47.2073 41.1842 47.1936 39.8277 47.0194C37.7576 46.7019 35.8479 45.77 34.375 44.3584C33.8809 43.8425 32.9184 42.4978 32.9785 42.4003C33.1354 42.2902 33.3005 42.1911 33.4727 42.1038L35.4492 41.0313L36.9918 40.1863L37.3141 40.6372C37.8579 41.3727 38.5501 41.9995 39.3508 42.4816C41.0695 43.3347 43.4156 43.2169 44.5758 42.2297C44.9653 41.8679 45.2083 41.3885 45.2625 40.8748C45.3167 40.3611 45.1786 39.8458 44.8723 39.4184C44.4426 38.8538 43.5832 38.3784 41.1812 37.3872C38.4098 36.2578 37.2152 35.5591 36.1238 34.4459C35.4425 33.7114 34.9394 32.8448 34.65 31.9069C34.4341 30.8354 34.4022 29.738 34.5555 28.6569C35.127 26.1259 37.1336 24.3588 40.0641 23.8347C41.4212 23.6759 42.7959 23.7115 44.1418 23.9403V23.9322ZM31.5348 26.0609V28.1409H24.5609V46.9219H19.6152V28.1369H12.6242V26.1056C12.6055 25.4064 12.6255 24.7066 12.6844 24.0094C12.7102 23.9769 16.9813 23.9606 22.1375 23.9688H31.509L31.5348 26.0609Z" fill="#007ACC"/>
</svg>
