<svg width="56" height="42" viewBox="0 0 56 42" fill="none" xmlns="http://www.w3.org/2000/svg">
<path fill-rule="evenodd" clip-rule="evenodd" d="M24.9282 34.802H22.075V35.1683C22.9675 35.1683 23.1108 35.3993 23.1108 36.7678V39.2343C23.1108 40.6023 22.9675 40.853 22.075 40.853C21.3899 40.7375 20.9276 40.294 20.29 39.4463L19.5568 38.4829C20.545 38.2706 21.071 37.5192 21.071 36.671C21.071 35.6116 20.322 34.802 18.9191 34.802H16.1141V35.1683C17.0065 35.1683 17.1498 35.3993 17.1498 36.7678V39.2343C17.1498 40.6023 17.0065 40.853 16.1141 40.853V41.2188H19.2859V40.853C18.3932 40.853 18.2499 40.6023 18.2499 39.2343V38.5405H18.5206L20.29 41.2187H24.9282C27.2076 41.2187 28.1957 39.7545 28.1957 38.0008C28.1957 36.2475 27.2076 34.802 24.9282 34.802ZM18.2499 37.9431V35.3806H18.9034C19.6204 35.3806 19.9394 35.9777 19.9394 36.671C19.9394 37.3459 19.6204 37.9431 18.9034 37.9431H18.2499V37.9431ZM24.976 40.6215H24.8643C24.2906 40.6215 24.2109 40.4482 24.2109 39.5618V35.3806C24.2109 35.3806 24.9122 35.3806 24.976 35.3806C26.6336 35.3806 26.9365 36.8448 26.9365 37.9818C26.9365 39.157 26.6336 40.6215 24.976 40.6215ZM10.488 32.8749H7.49137V33.2605C8.51161 33.2605 8.65495 33.5881 8.33601 34.7248L7.23635 38.6563L5.65852 32.8751H5.35547L3.74563 38.6563L2.67786 34.7248C2.34303 33.5303 2.59806 33.2605 3.5385 33.2605V32.8749H0V33.2605C0.924552 33.2605 1.17958 33.5494 1.56218 34.9561L3.33125 41.5465H3.5385L5.19612 35.5147L6.82197 41.5465H7.02898L8.84619 34.9561C9.2448 33.5494 9.48382 33.2605 10.4879 33.2605V32.8749H10.488ZM12.6554 34.5513C10.9022 34.5513 9.46757 36.1124 9.46757 38.0008C9.46757 39.9087 10.9022 41.4694 12.6554 41.4694C14.4087 41.4694 15.8433 39.9087 15.8433 38.0008C15.8432 36.1124 14.4087 34.5513 12.6554 34.5513ZM12.6554 40.853C11.189 40.853 10.6789 39.273 10.6789 38.0008C10.6789 36.7483 11.189 35.1489 12.6554 35.1489C14.1378 35.1489 14.6477 36.7482 14.6477 38.0008C14.6477 39.273 14.1378 40.853 12.6554 40.853Z" fill="#1D82AA"/>
<path fill-rule="evenodd" clip-rule="evenodd" d="M31.7815 32.8749H28.4822V33.2605C29.5502 33.2605 29.7413 33.5686 29.7413 35.4959V38.5789C29.7413 40.506 29.5502 40.8335 28.4822 40.8335V41.2187H32.1321V40.8335C31.0641 40.8335 30.8729 40.506 30.8729 38.5789V37.635H31.7815C33.4233 37.635 34.3317 36.5945 34.3317 35.2649C34.3318 33.8964 33.4233 32.8749 31.7815 32.8749ZM31.7815 36.9215H30.8729V33.5686H31.7815C32.6742 33.5686 33.0884 34.3397 33.0884 35.2647C33.0886 36.1701 32.6742 36.9215 31.7815 36.9215ZM45.202 39.7546C45.0586 40.3905 44.883 40.6215 43.7514 40.6215H43.5282C42.6994 40.6215 42.556 40.3905 42.556 39.0223V38.1359C43.7991 38.1359 43.8949 38.2706 43.8949 39.2728H44.1979V36.4016H43.8949C43.8949 37.4037 43.7991 37.5384 42.556 37.5384V35.3806H43.4325C44.5642 35.3806 44.7396 35.6116 44.8829 36.2475L44.9627 36.6133H45.2177L45.1063 34.8022H40.42V35.1684C41.3128 35.1684 41.456 35.3995 41.456 36.768V39.2344C41.456 40.4861 41.3341 40.8012 40.6305 40.8463C39.9617 40.7225 39.5024 40.2815 38.8741 39.4464L38.1409 38.483C39.1291 38.2707 39.6554 37.5193 39.6554 36.6712C39.6554 35.6118 38.9063 34.8022 37.5035 34.8022H34.6981V35.1684C35.5908 35.1684 35.7341 35.3995 35.7341 36.768V39.2344C35.7341 40.6025 35.5908 40.8532 34.6981 40.8532V41.219H37.8698V40.8532C36.9774 40.8532 36.8341 40.6025 36.8341 39.2344V38.5406H37.105L38.8739 41.2188H45.4249L45.5206 39.4077H45.2813L45.202 39.7546ZM36.8343 37.9431V35.3806H37.4878C38.205 35.3806 38.5238 35.9777 38.5238 36.671C38.5238 37.3459 38.205 37.9431 37.4878 37.9431H36.8343V37.9431ZM49.3938 37.6733L48.5172 37.153C47.752 36.7287 47.4172 36.4593 47.4172 35.9582C47.4172 35.4764 47.8317 35.1681 48.2781 35.1681C49.1228 35.1681 49.5371 35.9195 49.6488 36.8254H49.9835V34.5513H49.6807C49.6327 34.7825 49.5531 34.9948 49.4733 35.0719C49.2022 34.802 48.7562 34.5708 48.2303 34.5708C47.2417 34.5708 46.5247 35.3609 46.5247 36.286C46.5247 37.1338 47.0028 37.7693 47.6405 38.1359L48.549 38.6562C49.2023 39.0223 49.5691 39.4076 49.5691 39.9087C49.5691 40.4868 49.1545 40.8334 48.6447 40.8334C47.7042 40.8334 46.9709 40.082 46.8434 38.8103H46.5248V41.4692H46.8277C46.8596 41.1995 47.0029 40.9106 47.0827 40.8142C47.3216 41.0647 47.8795 41.4692 48.5172 41.4692C49.5849 41.4692 50.4618 40.6214 50.4618 39.4074C50.4618 38.8295 50.1588 38.1164 49.3938 37.6733ZM54.3026 37.6733L53.4263 37.153C52.661 36.7287 52.3263 36.4593 52.3263 35.9582C52.3263 35.4764 52.7408 35.1681 53.187 35.1681C54.0317 35.1681 54.4462 35.9195 54.5576 36.8254H54.8923V34.5513H54.5895C54.5417 34.7825 54.4619 34.9948 54.3825 35.0719C54.1112 34.802 53.6651 34.5708 53.1391 34.5708C52.1509 34.5708 51.4335 35.3609 51.4335 36.286C51.4335 37.1338 51.9117 37.7693 52.5493 38.1359L53.458 38.6562C54.1114 39.0223 54.4782 39.4076 54.4782 39.9087C54.4782 40.4868 54.0637 40.8334 53.5535 40.8334C52.6131 40.8334 51.8801 40.082 51.7526 38.8103H51.4336V41.4692H51.7368C51.7686 41.1995 51.9118 40.9106 51.9916 40.8142C52.2305 41.0647 52.7887 41.4692 53.4263 41.4692C54.4941 41.4692 55.3706 40.6214 55.3706 39.4074C55.3706 38.8295 55.0678 38.1164 54.3026 37.6733Z" fill="#494442"/>
<path fill-rule="evenodd" clip-rule="evenodd" d="M17.3334 14.5125C17.3334 19.4403 19.7022 23.6992 23.1373 25.7175L18.2251 9.44567C17.6539 10.994 17.3334 12.7075 17.3334 14.5125ZM34.583 13.8842C34.583 12.3456 34.1257 11.2801 33.7337 10.4507C33.2119 9.42516 32.7224 8.55648 32.7224 7.5311C32.7224 6.38684 33.4404 5.32116 34.4516 5.32116C34.4973 5.32116 34.5406 5.32829 34.5851 5.3312C32.753 3.30182 30.3122 2.06269 27.6312 2.06269C24.0336 2.06269 20.8687 4.29447 19.0272 7.67414C19.2691 7.68316 19.4968 7.68927 19.6901 7.68927C20.767 7.68927 22.4345 7.53096 22.4345 7.53096C22.9896 7.49152 23.055 8.47733 22.5004 8.55648C22.5004 8.55648 21.9424 8.63593 21.3219 8.67522L25.0719 22.161L27.3256 13.9897L25.7211 8.67536C25.1667 8.63593 24.6412 8.55663 24.6412 8.55663C24.0863 8.51734 24.1513 7.49167 24.7064 7.5311C24.7064 7.5311 26.4067 7.68941 27.4187 7.68941C28.4955 7.68941 30.1631 7.5311 30.1631 7.5311C30.7185 7.49167 30.7839 8.47747 30.2291 8.55663C30.2291 8.55663 29.6701 8.63608 29.0505 8.67536L32.772 22.0586L33.7991 17.9092C34.2441 16.1867 34.583 14.95 34.583 13.8842ZM27.8121 15.6016L24.7223 26.4562C25.6448 26.784 26.6204 26.9631 27.6312 26.9631C28.8303 26.9631 29.9805 26.7126 31.0508 26.2574C31.0232 26.2042 30.9981 26.1477 30.9775 26.086L27.8121 15.6016ZM36.6672 8.53961C36.7115 8.93625 36.7364 9.36157 36.7364 9.81991C36.7364 11.0829 36.5412 12.503 35.9535 14.2791L32.8079 25.274C35.8695 23.1155 37.9287 19.1052 37.9287 14.5125C37.9287 12.3481 37.4715 10.3126 36.6672 8.53961ZM27.6312 0C21.0123 0 15.6272 6.51038 15.6272 14.5123C15.6272 22.5156 21.0123 29.0254 27.6312 29.0254C34.2498 29.0254 39.6357 22.5156 39.6357 14.5123C39.6357 6.51052 34.2498 0 27.6312 0ZM27.6312 28.3603C21.3159 28.3603 16.1776 22.1483 16.1776 14.5125C16.1776 6.8772 21.3158 0.665399 27.6312 0.665399C33.9464 0.665399 39.0842 6.8772 39.0842 14.5125C39.0842 22.1482 33.9464 28.3603 27.6312 28.3603Z" fill="#494442"/>
</svg>
